<svg width="149" height="27" viewBox="0 0 149 27" fill="none" xmlns="http://www.w3.org/2000/svg">
<path d="M26.9082 27H22.084V20.4688H5.125V27H0.300781V13.6963C0.300781 11.7542 0.634766 9.9668 1.30273 8.33398C1.9707 6.70117 2.89844 5.2972 4.08594 4.12207C5.27344 2.94694 6.67741 2.03158 8.29785 1.37598C9.91829 0.720378 11.6872 0.392578 13.6045 0.392578H24.4775C24.8115 0.392578 25.127 0.454427 25.4238 0.578125C25.7207 0.701823 25.9805 0.875 26.2031 1.09766C26.4258 1.32031 26.599 1.58008 26.7227 1.87695C26.8464 2.17383 26.9082 2.48926 26.9082 2.82324V27ZM5.125 15.6445H22.084V5.2168H13.6045C13.4561 5.2168 13.1406 5.24154 12.6582 5.29102C12.1882 5.32812 11.6377 5.43327 11.0068 5.60645C10.3883 5.77962 9.73275 6.04557 9.04004 6.4043C8.34733 6.76302 7.71029 7.25781 7.12891 7.88867C6.54753 8.51953 6.0651 9.3112 5.68164 10.2637C5.31055 11.2038 5.125 12.348 5.125 13.6963V15.6445ZM58.0986 19.1699C58.0986 20.1224 57.9749 20.9821 57.7275 21.749C57.4925 22.5036 57.1771 23.1715 56.7812 23.7529C56.3854 24.3343 55.9215 24.8291 55.3896 25.2373C54.8577 25.6455 54.3073 25.9795 53.7383 26.2393C53.1693 26.499 52.5879 26.6908 51.9941 26.8145C51.4128 26.9382 50.8623 27 50.3428 27H31.7324V22.1758H50.3428C51.2705 22.1758 51.988 21.9036 52.4951 21.3594C53.0146 20.8151 53.2744 20.0853 53.2744 19.1699C53.2744 18.7246 53.2064 18.3164 53.0703 17.9453C52.9342 17.5742 52.7363 17.2526 52.4766 16.9805C52.2292 16.7083 51.9199 16.498 51.5488 16.3496C51.1901 16.2012 50.7881 16.127 50.3428 16.127H39.2471C38.4678 16.127 37.6266 15.9909 36.7236 15.7188C35.8206 15.4342 34.9795 14.9827 34.2002 14.3643C33.4333 13.7458 32.79 12.9355 32.2705 11.9336C31.7633 10.9316 31.5098 9.70703 31.5098 8.25977C31.5098 6.8125 31.7633 5.59408 32.2705 4.60449C32.79 3.60254 33.4333 2.79232 34.2002 2.17383C34.9795 1.54297 35.8206 1.09147 36.7236 0.819336C37.6266 0.534831 38.4678 0.392578 39.2471 0.392578H55.668V5.2168H39.2471C38.3317 5.2168 37.6143 5.49512 37.0947 6.05176C36.5876 6.6084 36.334 7.3444 36.334 8.25977C36.334 9.1875 36.5876 9.9235 37.0947 10.4678C37.6143 10.9997 38.3317 11.2656 39.2471 11.2656H50.3428H50.3799C50.8994 11.278 51.4499 11.3522 52.0312 11.4883C52.6126 11.612 53.1878 11.8099 53.7568 12.082C54.3382 12.3542 54.8887 12.7005 55.4082 13.1211C55.9277 13.5293 56.3854 14.0241 56.7812 14.6055C57.1895 15.1868 57.5111 15.8548 57.7461 16.6094C57.9811 17.3639 58.0986 18.2174 58.0986 19.1699ZM89.9941 27H83.1475L72.293 16.127H68.8975V11.2656H72.293L83.1475 0.392578H89.9941L76.3193 13.6963L89.9941 27ZM66.9678 27H62.1436V0.392578H66.9678V27ZM114.709 16.127H99.4756V11.2656H114.709V16.127ZM116.88 27H99.4756C98.8076 27 98.0778 26.8825 97.2861 26.6475C96.4945 26.4124 95.7585 26.029 95.0781 25.4971C94.4102 24.9528 93.8473 24.2539 93.3896 23.4004C92.9443 22.5345 92.7217 21.4769 92.7217 20.2275V2.82324C92.7217 2.48926 92.7835 2.17383 92.9072 1.87695C93.0309 1.58008 93.1979 1.32031 93.4082 1.09766C93.6309 0.875 93.8906 0.701823 94.1875 0.578125C94.4844 0.454427 94.806 0.392578 95.1523 0.392578H116.88V5.2168H97.5459V20.2275C97.5459 20.8584 97.7129 21.3408 98.0469 21.6748C98.3809 22.0088 98.8695 22.1758 99.5127 22.1758H116.88V27ZM148.107 15.8672C148.107 17.4876 147.823 18.9782 147.254 20.3389C146.697 21.6995 145.924 22.8747 144.935 23.8643C143.945 24.8415 142.77 25.6084 141.409 26.165C140.049 26.7217 138.57 27 136.975 27H123.949C123.603 27 123.281 26.9382 122.984 26.8145C122.688 26.6908 122.428 26.5238 122.205 26.3135C121.995 26.0908 121.828 25.8311 121.704 25.5342C121.58 25.2373 121.519 24.9157 121.519 24.5693V2.82324C121.519 2.48926 121.58 2.17383 121.704 1.87695C121.828 1.58008 121.995 1.32031 122.205 1.09766C122.428 0.875 122.688 0.701823 122.984 0.578125C123.281 0.454427 123.603 0.392578 123.949 0.392578H136.975C138.57 0.392578 140.049 0.670898 141.409 1.22754C142.77 1.78418 143.945 2.55729 144.935 3.54688C145.924 4.52409 146.697 5.69922 147.254 7.07227C147.823 8.43294 148.107 9.91732 148.107 11.5254V15.8672ZM143.283 11.5254C143.283 10.5853 143.129 9.72559 142.819 8.94629C142.522 8.16699 142.096 7.50521 141.539 6.96094C140.982 6.4043 140.314 5.97754 139.535 5.68066C138.768 5.37142 137.915 5.2168 136.975 5.2168H126.343V22.1758H136.975C137.915 22.1758 138.768 22.0273 139.535 21.7305C140.314 21.4212 140.982 20.9945 141.539 20.4502C142.096 19.8936 142.522 19.2318 142.819 18.4648C143.129 17.6855 143.283 16.8197 143.283 15.8672V11.5254Z" fill="#A8A8A8"/>
</svg>
