<svg width="348" height="74" viewBox="0 0 348 74" fill="none" xmlns="http://www.w3.org/2000/svg">
<path d="M25.626 28H8.22168C7.77637 28 7.29395 27.9505 6.77441 27.8516C6.26725 27.7402 5.76009 27.5732 5.25293 27.3506C4.75814 27.1279 4.2819 26.8434 3.82422 26.4971C3.36654 26.1383 2.95833 25.7116 2.59961 25.2168C2.25326 24.7096 1.97493 24.1283 1.76465 23.4727C1.55436 22.8047 1.44922 22.0563 1.44922 21.2275V8.16504C1.44922 7.71973 1.4987 7.24349 1.59766 6.73633C1.70898 6.2168 1.87598 5.70964 2.09863 5.21484C2.32129 4.70768 2.61198 4.22526 2.9707 3.76758C3.32943 3.3099 3.75618 2.90788 4.25098 2.56152C4.75814 2.2028 5.33952 1.91829 5.99512 1.70801C6.65072 1.49772 7.3929 1.39258 8.22168 1.39258H25.626V6.2168H8.22168C7.59082 6.2168 7.1084 6.38379 6.77441 6.71777C6.44043 7.05176 6.27344 7.54655 6.27344 8.20215V21.2275C6.27344 21.846 6.44043 22.3285 6.77441 22.6748C7.12077 23.0088 7.60319 23.1758 8.22168 23.1758H25.626V28ZM57.707 17.2383C57.707 18.8587 57.4287 20.3493 56.8721 21.71C56.3154 23.0706 55.5423 24.2458 54.5527 25.2354C53.5632 26.2249 52.388 26.998 51.0273 27.5547C49.679 28.099 48.207 28.3711 46.6113 28.3711H40.0801C38.4844 28.3711 37.0062 28.099 35.6455 27.5547C34.2848 26.998 33.1097 26.2249 32.1201 25.2354C31.1305 24.2458 30.3512 23.0706 29.7822 21.71C29.2256 20.3493 28.9473 18.8587 28.9473 17.2383V12.1543C28.9473 10.5462 29.2256 9.06185 29.7822 7.70117C30.3512 6.32812 31.1305 5.15299 32.1201 4.17578C33.1097 3.1862 34.2848 2.41309 35.6455 1.85645C37.0062 1.2998 38.4844 1.02148 40.0801 1.02148H46.6113C48.207 1.02148 49.679 1.2998 51.0273 1.85645C52.388 2.41309 53.5632 3.1862 54.5527 4.17578C55.5423 5.15299 56.3154 6.32812 56.8721 7.70117C57.4287 9.06185 57.707 10.5462 57.707 12.1543V17.2383ZM52.8828 12.1543C52.8828 11.2018 52.7282 10.3421 52.4189 9.5752C52.1221 8.7959 51.6953 8.13411 51.1387 7.58984C50.5944 7.0332 49.9326 6.60645 49.1533 6.30957C48.3864 6.00033 47.5391 5.8457 46.6113 5.8457H40.0801C39.14 5.8457 38.2803 6.00033 37.501 6.30957C36.734 6.60645 36.0723 7.0332 35.5156 7.58984C34.959 8.13411 34.526 8.7959 34.2168 9.5752C33.9199 10.3421 33.7715 11.2018 33.7715 12.1543V17.2383C33.7715 18.1908 33.9199 19.0566 34.2168 19.8359C34.526 20.6029 34.959 21.2646 35.5156 21.8213C36.0723 22.3656 36.734 22.7923 37.501 23.1016C38.2803 23.3984 39.14 23.5469 40.0801 23.5469H46.5742C47.5143 23.5469 48.3678 23.3984 49.1348 23.1016C49.9141 22.7923 50.582 22.3656 51.1387 21.8213C51.6953 21.2646 52.1221 20.6029 52.4189 19.8359C52.7282 19.0566 52.8828 18.1908 52.8828 17.2383V12.1543ZM86.9121 28H64.9062C64.5599 28 64.2383 27.9382 63.9414 27.8145C63.6445 27.6908 63.3848 27.5238 63.1621 27.3135C62.9518 27.0908 62.7848 26.8311 62.6611 26.5342C62.5374 26.2373 62.4756 25.9157 62.4756 25.5693V1.39258H67.2998V23.1758H86.9121V28ZM114.893 28H92.8867C92.5404 28 92.2188 27.9382 91.9219 27.8145C91.625 27.6908 91.3652 27.5238 91.1426 27.3135C90.9323 27.0908 90.7653 26.8311 90.6416 26.5342C90.5179 26.2373 90.4561 25.9157 90.4561 25.5693V1.39258H95.2803V23.1758H114.893V28ZM140.201 17.127H124.968V12.2656H140.201V17.127ZM142.372 28H124.968C124.3 28 123.57 27.8825 122.778 27.6475C121.987 27.4124 121.251 27.029 120.57 26.4971C119.902 25.9528 119.34 25.2539 118.882 24.4004C118.437 23.5345 118.214 22.4769 118.214 21.2275V3.82324C118.214 3.48926 118.276 3.17383 118.399 2.87695C118.523 2.58008 118.69 2.32031 118.9 2.09766C119.123 1.875 119.383 1.70182 119.68 1.57812C119.977 1.45443 120.298 1.39258 120.645 1.39258H142.372V6.2168H123.038V21.2275C123.038 21.8584 123.205 22.3408 123.539 22.6748C123.873 23.0088 124.362 23.1758 125.005 23.1758H142.372V28ZM170.687 28H153.282C152.837 28 152.354 27.9505 151.835 27.8516C151.328 27.7402 150.821 27.5732 150.313 27.3506C149.819 27.1279 149.342 26.8434 148.885 26.4971C148.427 26.1383 148.019 25.7116 147.66 25.2168C147.314 24.7096 147.035 24.1283 146.825 23.4727C146.615 22.8047 146.51 22.0563 146.51 21.2275V8.16504C146.51 7.71973 146.559 7.24349 146.658 6.73633C146.77 6.2168 146.937 5.70964 147.159 5.21484C147.382 4.70768 147.673 4.22526 148.031 3.76758C148.39 3.3099 148.817 2.90788 149.312 2.56152C149.819 2.2028 150.4 1.91829 151.056 1.70801C151.711 1.49772 152.453 1.39258 153.282 1.39258H170.687V6.2168H153.282C152.651 6.2168 152.169 6.38379 151.835 6.71777C151.501 7.05176 151.334 7.54655 151.334 8.20215V21.2275C151.334 21.846 151.501 22.3285 151.835 22.6748C152.181 23.0088 152.664 23.1758 153.282 23.1758H170.687V28ZM199.298 6.2168H188.666V28H183.842V6.2168H173.191V1.39258H199.298V6.2168ZM207.722 28H202.897V1.39258H207.722V28ZM241.287 17.2383C241.287 18.8587 241.009 20.3493 240.452 21.71C239.896 23.0706 239.122 24.2458 238.133 25.2354C237.143 26.2249 235.968 26.998 234.607 27.5547C233.259 28.099 231.787 28.3711 230.191 28.3711H223.66C222.064 28.3711 220.586 28.099 219.226 27.5547C217.865 26.998 216.69 26.2249 215.7 25.2354C214.711 24.2458 213.931 23.0706 213.362 21.71C212.806 20.3493 212.527 18.8587 212.527 17.2383V12.1543C212.527 10.5462 212.806 9.06185 213.362 7.70117C213.931 6.32812 214.711 5.15299 215.7 4.17578C216.69 3.1862 217.865 2.41309 219.226 1.85645C220.586 1.2998 222.064 1.02148 223.66 1.02148H230.191C231.787 1.02148 233.259 1.2998 234.607 1.85645C235.968 2.41309 237.143 3.1862 238.133 4.17578C239.122 5.15299 239.896 6.32812 240.452 7.70117C241.009 9.06185 241.287 10.5462 241.287 12.1543V17.2383ZM236.463 12.1543C236.463 11.2018 236.308 10.3421 235.999 9.5752C235.702 8.7959 235.275 8.13411 234.719 7.58984C234.174 7.0332 233.513 6.60645 232.733 6.30957C231.966 6.00033 231.119 5.8457 230.191 5.8457H223.66C222.72 5.8457 221.86 6.00033 221.081 6.30957C220.314 6.60645 219.652 7.0332 219.096 7.58984C218.539 8.13411 218.106 8.7959 217.797 9.5752C217.5 10.3421 217.352 11.2018 217.352 12.1543V17.2383C217.352 18.1908 217.5 19.0566 217.797 19.8359C218.106 20.6029 218.539 21.2646 219.096 21.8213C219.652 22.3656 220.314 22.7923 221.081 23.1016C221.86 23.3984 222.72 23.5469 223.66 23.5469H230.154C231.094 23.5469 231.948 23.3984 232.715 23.1016C233.494 22.7923 234.162 22.3656 234.719 21.8213C235.275 21.2646 235.702 20.6029 235.999 19.8359C236.308 19.0566 236.463 18.1908 236.463 17.2383V12.1543ZM272.645 25.9404C272.645 26.2868 272.576 26.6084 272.44 26.9053C272.317 27.2021 272.144 27.4619 271.921 27.6846C271.711 27.8949 271.457 28.0618 271.16 28.1855C270.863 28.3092 270.548 28.3711 270.214 28.3711C269.917 28.3711 269.614 28.3154 269.305 28.2041C269.008 28.0928 268.742 27.9134 268.507 27.666L250.88 9.25977V28H246.056V3.45215C246.056 2.95736 246.192 2.51204 246.464 2.11621C246.748 1.70801 247.107 1.40495 247.54 1.20703C247.998 1.02148 248.468 0.97819 248.95 1.07715C249.433 1.16374 249.847 1.38639 250.193 1.74512L267.82 20.1328V1.39258H272.645V25.9404ZM318.549 17.2383C318.549 18.8587 318.271 20.3493 317.714 21.71C317.157 23.0706 316.384 24.2458 315.395 25.2354C314.405 26.2249 313.23 26.998 311.869 27.5547C310.521 28.099 309.049 28.3711 307.453 28.3711H300.922C299.326 28.3711 297.848 28.099 296.487 27.5547C295.127 26.998 293.951 26.2249 292.962 25.2354C291.972 24.2458 291.193 23.0706 290.624 21.71C290.067 20.3493 289.789 18.8587 289.789 17.2383V12.1543C289.789 10.5462 290.067 9.06185 290.624 7.70117C291.193 6.32812 291.972 5.15299 292.962 4.17578C293.951 3.1862 295.127 2.41309 296.487 1.85645C297.848 1.2998 299.326 1.02148 300.922 1.02148H307.453C309.049 1.02148 310.521 1.2998 311.869 1.85645C313.23 2.41309 314.405 3.1862 315.395 4.17578C316.384 5.15299 317.157 6.32812 317.714 7.70117C318.271 9.06185 318.549 10.5462 318.549 12.1543V17.2383ZM313.725 12.1543C313.725 11.2018 313.57 10.3421 313.261 9.5752C312.964 8.7959 312.537 8.13411 311.98 7.58984C311.436 7.0332 310.774 6.60645 309.995 6.30957C309.228 6.00033 308.381 5.8457 307.453 5.8457H300.922C299.982 5.8457 299.122 6.00033 298.343 6.30957C297.576 6.60645 296.914 7.0332 296.357 7.58984C295.801 8.13411 295.368 8.7959 295.059 9.5752C294.762 10.3421 294.613 11.2018 294.613 12.1543V17.2383C294.613 18.1908 294.762 19.0566 295.059 19.8359C295.368 20.6029 295.801 21.2646 296.357 21.8213C296.914 22.3656 297.576 22.7923 298.343 23.1016C299.122 23.3984 299.982 23.5469 300.922 23.5469H307.416C308.356 23.5469 309.21 23.3984 309.977 23.1016C310.756 22.7923 311.424 22.3656 311.98 21.8213C312.537 21.2646 312.964 20.6029 313.261 19.8359C313.57 19.0566 313.725 18.1908 313.725 17.2383V12.1543ZM345.323 17.127H330.071V12.2656H345.323V17.127ZM347.476 6.2168H328.142V28H323.317V3.82324C323.317 3.48926 323.379 3.17383 323.503 2.87695C323.627 2.58008 323.794 2.32031 324.004 2.09766C324.227 1.875 324.486 1.70182 324.783 1.57812C325.08 1.45443 325.402 1.39258 325.748 1.39258H347.476V6.2168ZM22.1748 48.6172C22.3851 49.0007 22.4902 49.4089 22.4902 49.8418C22.4902 50.2624 22.3851 50.6644 22.1748 51.0479L8.79688 74H3.21191L15.8662 52.2168H0.243164V47.3926H20.0781C20.5111 47.3926 20.9131 47.5039 21.2842 47.7266C21.6676 47.9368 21.9645 48.2337 22.1748 48.6172ZM46.5557 48.6172C46.766 49.0007 46.8711 49.4089 46.8711 49.8418C46.8711 50.2624 46.766 50.6644 46.5557 51.0479L33.1777 74H27.5928L40.2471 52.2168H24.624V47.3926H44.459C44.8919 47.3926 45.2939 47.5039 45.665 47.7266C46.0485 47.9368 46.3454 48.2337 46.5557 48.6172ZM70.9365 48.6172C71.1468 49.0007 71.252 49.4089 71.252 49.8418C71.252 50.2624 71.1468 50.6644 70.9365 51.0479L57.5586 74H51.9736L64.6279 52.2168H49.0049V47.3926H68.8398C69.2728 47.3926 69.6748 47.5039 70.0459 47.7266C70.4294 47.9368 70.7262 48.2337 70.9365 48.6172Z" fill="#A8A8A8"/>
</svg>
