<svg width="256" height="38" viewBox="0 0 256 38" fill="none" xmlns="http://www.w3.org/2000/svg">
<path d="M36.3955 22.0586C36.3955 24.2334 36.0137 26.2339 35.25 28.0601C34.5029 29.8862 33.4653 31.4634 32.1372 32.7915C30.8091 34.103 29.2319 35.1323 27.4058 35.8794C25.5796 36.6265 23.5957 37 21.4541 37H3.97266C3.50781 37 3.07617 36.917 2.67773 36.751C2.2793 36.585 1.93066 36.3608 1.63184 36.0786C1.34961 35.7798 1.12549 35.4312 0.959473 35.0327C0.793457 34.6343 0.710449 34.2026 0.710449 33.7378V4.55225C0.710449 4.104 0.793457 3.68066 0.959473 3.28223C1.12549 2.88379 1.34961 2.53516 1.63184 2.23633C1.93066 1.9375 2.2793 1.70508 2.67773 1.53906C3.07617 1.37305 3.50781 1.29004 3.97266 1.29004H21.4541C23.5957 1.29004 25.5796 1.66357 27.4058 2.41064C29.2319 3.15771 30.8091 4.19531 32.1372 5.52344C33.4653 6.83496 34.5029 8.41211 35.25 10.2549C36.0137 12.0811 36.3955 14.0732 36.3955 16.2314V22.0586ZM29.9209 16.2314C29.9209 14.9697 29.7134 13.8159 29.2983 12.77C28.8999 11.7241 28.3271 10.8359 27.5801 10.1055C26.833 9.3584 25.9365 8.78564 24.8906 8.38721C23.8613 7.97217 22.7158 7.76465 21.4541 7.76465H7.18506V30.5254H21.4541C22.7158 30.5254 23.8613 30.3262 24.8906 29.9277C25.9365 29.5127 26.833 28.9399 27.5801 28.2095C28.3271 27.4624 28.8999 26.5742 29.2983 25.5449C29.7134 24.499 29.9209 23.3369 29.9209 22.0586V16.2314ZM49.27 37H42.7954V1.29004H49.27V37ZM91.1558 26.4912C91.1558 27.7695 90.9897 28.9233 90.6577 29.9526C90.3423 30.9653 89.9189 31.8618 89.3877 32.6421C88.8564 33.4224 88.2339 34.0864 87.52 34.6343C86.8062 35.1821 86.0674 35.6304 85.3037 35.979C84.54 36.3276 83.7598 36.585 82.9629 36.751C82.1826 36.917 81.4438 37 80.7466 37H55.7695V30.5254H80.7466C81.9917 30.5254 82.9546 30.1602 83.6353 29.4297C84.3325 28.6992 84.6812 27.7197 84.6812 26.4912C84.6812 25.8936 84.5898 25.3457 84.4072 24.8477C84.2246 24.3496 83.959 23.918 83.6104 23.5527C83.2783 23.1875 82.8633 22.9053 82.3652 22.7061C81.8838 22.5068 81.3442 22.4072 80.7466 22.4072H65.855C64.8091 22.4072 63.6802 22.2246 62.4683 21.8594C61.2563 21.4775 60.1274 20.8716 59.0815 20.0415C58.0522 19.2114 57.189 18.124 56.4917 16.7793C55.811 15.4346 55.4707 13.791 55.4707 11.8486C55.4707 9.90625 55.811 8.271 56.4917 6.94287C57.189 5.59814 58.0522 4.51074 59.0815 3.68066C60.1274 2.83398 61.2563 2.22803 62.4683 1.86279C63.6802 1.48096 64.8091 1.29004 65.855 1.29004H87.8936V7.76465H65.855C64.6265 7.76465 63.6636 8.13818 62.9663 8.88525C62.2856 9.63232 61.9453 10.6201 61.9453 11.8486C61.9453 13.0938 62.2856 14.0815 62.9663 14.812C63.6636 15.5259 64.6265 15.8828 65.855 15.8828H80.7466H80.7964C81.4937 15.8994 82.2324 15.999 83.0127 16.1816C83.793 16.3477 84.5649 16.6133 85.3286 16.9785C86.1089 17.3438 86.8477 17.8086 87.5449 18.373C88.2422 18.9209 88.8564 19.585 89.3877 20.3652C89.9355 21.1455 90.3672 22.042 90.6826 23.0547C90.998 24.0674 91.1558 25.2129 91.1558 26.4912ZM128.509 37H105.151C104.553 37 103.906 36.9336 103.208 36.8008C102.528 36.6514 101.847 36.4272 101.167 36.1284C100.502 35.8296 99.8633 35.4478 99.249 34.9829C98.6348 34.5015 98.0869 33.9287 97.6055 33.2646C97.1406 32.584 96.7671 31.8037 96.4849 30.9238C96.2026 30.0273 96.0615 29.0229 96.0615 27.9106V10.3794C96.0615 9.78174 96.1279 9.14258 96.2607 8.46191C96.4102 7.76465 96.6343 7.08398 96.9331 6.41992C97.2319 5.73926 97.6221 5.0918 98.1035 4.47754C98.585 3.86328 99.1577 3.32373 99.8218 2.85889C100.502 2.37744 101.283 1.99561 102.163 1.71338C103.042 1.43115 104.039 1.29004 105.151 1.29004H128.509V7.76465H105.151C104.304 7.76465 103.657 7.98877 103.208 8.43701C102.76 8.88525 102.536 9.54932 102.536 10.4292V27.9106C102.536 28.7407 102.76 29.3882 103.208 29.853C103.673 30.3013 104.321 30.5254 105.151 30.5254H128.509V37ZM171.565 22.5566C171.565 24.7314 171.192 26.7319 170.445 28.5581C169.698 30.3843 168.66 31.9614 167.332 33.2896C166.004 34.6177 164.427 35.6553 162.601 36.4023C160.791 37.1328 158.815 37.498 156.674 37.498H147.908C145.767 37.498 143.783 37.1328 141.957 36.4023C140.13 35.6553 138.553 34.6177 137.225 33.2896C135.897 31.9614 134.851 30.3843 134.087 28.5581C133.34 26.7319 132.967 24.7314 132.967 22.5566V15.7334C132.967 13.5752 133.34 11.583 134.087 9.75684C134.851 7.91406 135.897 6.33691 137.225 5.02539C138.553 3.69727 140.13 2.65967 141.957 1.9126C143.783 1.16553 145.767 0.791992 147.908 0.791992H156.674C158.815 0.791992 160.791 1.16553 162.601 1.9126C164.427 2.65967 166.004 3.69727 167.332 5.02539C168.66 6.33691 169.698 7.91406 170.445 9.75684C171.192 11.583 171.565 13.5752 171.565 15.7334V22.5566ZM165.091 15.7334C165.091 14.4551 164.883 13.3013 164.468 12.272C164.07 11.2261 163.497 10.3379 162.75 9.60742C162.02 8.86035 161.131 8.2876 160.085 7.88916C159.056 7.47412 157.919 7.2666 156.674 7.2666H147.908C146.646 7.2666 145.493 7.47412 144.447 7.88916C143.417 8.2876 142.529 8.86035 141.782 9.60742C141.035 10.3379 140.454 11.2261 140.039 12.272C139.641 13.3013 139.441 14.4551 139.441 15.7334V22.5566C139.441 23.835 139.641 24.9971 140.039 26.043C140.454 27.0723 141.035 27.9604 141.782 28.7075C142.529 29.438 143.417 30.0107 144.447 30.4258C145.493 30.8242 146.646 31.0234 147.908 31.0234H156.624C157.886 31.0234 159.031 30.8242 160.061 30.4258C161.106 30.0107 162.003 29.438 162.75 28.7075C163.497 27.9604 164.07 27.0723 164.468 26.043C164.883 24.9971 165.091 23.835 165.091 22.5566V15.7334ZM213.65 13.293C213.65 14.7705 213.468 16.0903 213.103 17.2524C212.737 18.4146 212.239 19.4438 211.608 20.3403C210.994 21.2202 210.28 21.9756 209.467 22.6064C208.653 23.2373 207.798 23.7603 206.902 24.1753C206.022 24.5737 205.125 24.8643 204.212 25.0469C203.316 25.2295 202.469 25.3208 201.672 25.3208L215.194 37H205.184L191.687 25.3208H187.03V18.8462H201.672C202.486 18.7798 203.225 18.6138 203.889 18.3481C204.569 18.0659 205.15 17.6924 205.632 17.2275C206.13 16.7627 206.512 16.2065 206.777 15.5591C207.043 14.895 207.176 14.1396 207.176 13.293V9.20898C207.176 8.84375 207.126 8.56982 207.026 8.38721C206.943 8.18799 206.827 8.04687 206.678 7.96387C206.545 7.86426 206.396 7.80615 206.229 7.78955C206.08 7.77295 205.939 7.76465 205.806 7.76465H184.44V37H177.965V4.55225C177.965 4.104 178.048 3.68066 178.214 3.28223C178.38 2.88379 178.604 2.53516 178.887 2.23633C179.186 1.9375 179.534 1.70508 179.933 1.53906C180.331 1.37305 180.763 1.29004 181.228 1.29004H205.806C207.25 1.29004 208.471 1.55566 209.467 2.08691C210.463 2.60156 211.268 3.25732 211.882 4.0542C212.513 4.83447 212.961 5.68115 213.227 6.59424C213.509 7.50732 213.65 8.3623 213.65 9.15918V13.293ZM255.785 22.0586C255.785 24.2334 255.403 26.2339 254.64 28.0601C253.893 29.8862 252.855 31.4634 251.527 32.7915C250.199 34.103 248.622 35.1323 246.795 35.8794C244.969 36.6265 242.985 37 240.844 37H223.362C222.897 37 222.466 36.917 222.067 36.751C221.669 36.585 221.32 36.3608 221.021 36.0786C220.739 35.7798 220.515 35.4312 220.349 35.0327C220.183 34.6343 220.1 34.2026 220.1 33.7378V4.55225C220.1 4.104 220.183 3.68066 220.349 3.28223C220.515 2.88379 220.739 2.53516 221.021 2.23633C221.32 1.9375 221.669 1.70508 222.067 1.53906C222.466 1.37305 222.897 1.29004 223.362 1.29004H240.844C242.985 1.29004 244.969 1.66357 246.795 2.41064C248.622 3.15771 250.199 4.19531 251.527 5.52344C252.855 6.83496 253.893 8.41211 254.64 10.2549C255.403 12.0811 255.785 14.0732 255.785 16.2314V22.0586ZM249.311 16.2314C249.311 14.9697 249.103 13.8159 248.688 12.77C248.29 11.7241 247.717 10.8359 246.97 10.1055C246.223 9.3584 245.326 8.78564 244.28 8.38721C243.251 7.97217 242.105 7.76465 240.844 7.76465H226.575V30.5254H240.844C242.105 30.5254 243.251 30.3262 244.28 29.9277C245.326 29.5127 246.223 28.9399 246.97 28.2095C247.717 27.4624 248.29 26.5742 248.688 25.5449C249.103 24.499 249.311 23.3369 249.311 22.0586V16.2314Z" fill="#8DFD1B"/>
</svg>
