<svg width="45" height="45" viewBox="0 0 45 45" fill="none" xmlns="http://www.w3.org/2000/svg">
<rect x="0.5" y="0.5" width="44" height="44" stroke="#8DFD1B"/>
<path d="M24.652 32.336C23.364 32.336 22.2067 32.1027 21.18 31.636C20.172 31.1507 19.36 30.4507 18.744 29.536C18.128 28.6213 17.792 27.5013 17.736 26.176H20.144C20.1813 27.296 20.592 28.248 21.376 29.032C22.16 29.7973 23.252 30.18 24.652 30.18C26.0147 30.18 27.0693 29.8347 27.816 29.144C28.5627 28.4347 28.936 27.4733 28.936 26.26C28.936 25.42 28.7213 24.7293 28.292 24.188C27.8627 23.628 27.284 23.2173 26.556 22.956C25.8467 22.676 25.0533 22.536 24.176 22.536H22.468V20.408H23.952C25.2213 20.408 26.2293 20.1373 26.976 19.596C27.7413 19.0547 28.124 18.2613 28.124 17.216C28.124 16.3387 27.816 15.62 27.2 15.06C26.6027 14.5 25.744 14.22 24.624 14.22C23.5413 14.22 22.664 14.528 21.992 15.144C21.32 15.7413 20.9373 16.5253 20.844 17.496H18.492C18.5293 16.432 18.8093 15.4987 19.332 14.696C19.8547 13.8747 20.564 13.2307 21.46 12.764C22.3747 12.2973 23.4293 12.064 24.624 12.064C25.912 12.064 26.9853 12.288 27.844 12.736C28.7213 13.184 29.384 13.7907 29.832 14.556C30.28 15.3027 30.504 16.1333 30.504 17.048C30.504 18.0187 30.2053 18.8773 29.608 19.624C29.0107 20.352 28.3013 20.8653 27.48 21.164V21.332C28.5813 21.668 29.496 22.2373 30.224 23.04C30.952 23.8427 31.316 24.916 31.316 26.26C31.316 27.3987 31.0453 28.4253 30.504 29.34C29.9813 30.2547 29.216 30.9827 28.208 31.524C27.2187 32.0653 26.0333 32.336 24.652 32.336Z" fill="#8DFD1B"/>
</svg>
