<svg width="45" height="45" viewBox="0 0 45 45" fill="none" xmlns="http://www.w3.org/2000/svg">
<rect x="0.5" y="0.5" width="44" height="44" stroke="#8DFD1B"/>
<path d="M18.072 31V29.152C20.088 27.5467 21.8427 26.072 23.336 24.728C24.848 23.384 26.0147 22.0867 26.836 20.836C27.6573 19.5853 28.068 18.3067 28.068 17C28.068 15.824 27.732 14.9 27.06 14.228C26.4067 13.5373 25.52 13.192 24.4 13.192C23.5413 13.192 22.8133 13.3787 22.216 13.752C21.6187 14.1253 21.1707 14.62 20.872 15.236C20.5733 15.852 20.424 16.5147 20.424 17.224H18.1C18.1187 15.936 18.3987 14.8347 18.94 13.92C19.5 12.9867 20.2467 12.2773 21.18 11.792C22.132 11.3067 23.2053 11.064 24.4 11.064C26.3227 11.064 27.816 11.596 28.88 12.66C29.944 13.724 30.476 15.152 30.476 16.944C30.476 18.12 30.224 19.2493 29.72 20.332C29.216 21.396 28.544 22.4227 27.704 23.412C26.864 24.4013 25.9213 25.3533 24.876 26.268C23.8307 27.1827 22.776 28.06 21.712 28.9H31.008V31H18.072Z" fill="#8DFD1B"/>
</svg>
