<svg width="293" height="33" viewBox="0 0 293 33" fill="none" xmlns="http://www.w3.org/2000/svg">
<path d="M22.8076 17.127H7.55566V12.2656H22.8076V17.127ZM24.96 6.2168H5.62598V28H0.801758V3.82324C0.801758 3.48926 0.863607 3.17383 0.987305 2.87695C1.111 2.58008 1.27799 2.32031 1.48828 2.09766C1.71094 1.875 1.9707 1.70182 2.26758 1.57812C2.56445 1.45443 2.88607 1.39258 3.23242 1.39258H24.96V6.2168ZM55.4453 10.3359C55.4453 11.4368 55.3092 12.4202 55.0371 13.2861C54.765 14.152 54.3939 14.9189 53.9238 15.5869C53.4661 16.2425 52.9342 16.8053 52.3281 17.2754C51.722 17.7454 51.085 18.1351 50.417 18.4443C49.7614 18.7412 49.0934 18.9577 48.4131 19.0938C47.7451 19.2298 47.1143 19.2979 46.5205 19.2979L56.5957 28H49.1367L39.0801 19.2979H35.6104V14.4736H46.5205C47.1266 14.4242 47.6771 14.3005 48.1719 14.1025C48.679 13.8923 49.112 13.6139 49.4707 13.2676C49.8418 12.9212 50.1263 12.5068 50.3242 12.0244C50.5221 11.5296 50.6211 10.9668 50.6211 10.3359V7.29297C50.6211 7.02083 50.584 6.81673 50.5098 6.68066C50.4479 6.53223 50.3613 6.42708 50.25 6.36523C50.151 6.29102 50.0397 6.24772 49.916 6.23535C49.8047 6.22298 49.6995 6.2168 49.6006 6.2168H33.6807V28H28.8564V3.82324C28.8564 3.48926 28.9183 3.17383 29.042 2.87695C29.1657 2.58008 29.3327 2.32031 29.543 2.09766C29.7656 1.875 30.0254 1.70182 30.3223 1.57812C30.6191 1.45443 30.9408 1.39258 31.2871 1.39258H49.6006C50.6768 1.39258 51.5859 1.59049 52.3281 1.98633C53.0703 2.36979 53.6702 2.8584 54.1279 3.45215C54.598 4.03353 54.932 4.66439 55.1299 5.34473C55.3402 6.02507 55.4453 6.66211 55.4453 7.25586V10.3359ZM82.1641 17.127H66.9307V12.2656H82.1641V17.127ZM84.335 28H66.9307C66.2627 28 65.5329 27.8825 64.7412 27.6475C63.9495 27.4124 63.2135 27.029 62.5332 26.4971C61.8652 25.9528 61.3024 25.2539 60.8447 24.4004C60.3994 23.5345 60.1768 22.4769 60.1768 21.2275V3.82324C60.1768 3.48926 60.2386 3.17383 60.3623 2.87695C60.486 2.58008 60.653 2.32031 60.8633 2.09766C61.0859 1.875 61.3457 1.70182 61.6426 1.57812C61.9395 1.45443 62.2611 1.39258 62.6074 1.39258H84.335V6.2168H65.001V21.2275C65.001 21.8584 65.168 22.3408 65.502 22.6748C65.8359 23.0088 66.3245 23.1758 66.9678 23.1758H84.335V28ZM116.639 17.2383C116.639 18.4753 116.472 19.6442 116.138 20.7451C115.816 21.8337 115.352 22.8232 114.746 23.7139C114.152 24.6045 113.429 25.3838 112.575 26.0518C111.734 26.7197 110.794 27.2454 109.755 27.6289L115.396 32.1006H108.4L103.762 28.3711H99.0117C97.416 28.3711 95.9378 28.099 94.5771 27.5547C93.2165 26.998 92.0413 26.2249 91.0518 25.2354C90.0622 24.2458 89.2829 23.0706 88.7139 21.71C88.1572 20.3493 87.8789 18.8587 87.8789 17.2383V12.1543C87.8789 10.5462 88.1572 9.06185 88.7139 7.70117C89.2829 6.32812 90.0622 5.15299 91.0518 4.17578C92.0413 3.1862 93.2165 2.41309 94.5771 1.85645C95.9378 1.2998 97.416 1.02148 99.0117 1.02148H105.543C107.139 1.02148 108.611 1.2998 109.959 1.85645C111.32 2.41309 112.495 3.1862 113.484 4.17578C114.474 5.15299 115.247 6.32812 115.804 7.70117C116.36 9.06185 116.639 10.5462 116.639 12.1543V17.2383ZM111.814 12.1543C111.814 11.2018 111.66 10.3421 111.351 9.5752C111.054 8.7959 110.627 8.13411 110.07 7.58984C109.526 7.0332 108.864 6.60645 108.085 6.30957C107.318 6.00033 106.471 5.8457 105.543 5.8457H99.0117C98.0716 5.8457 97.2119 6.00033 96.4326 6.30957C95.6657 6.60645 95.0039 7.0332 94.4473 7.58984C93.8906 8.13411 93.4577 8.7959 93.1484 9.5752C92.8516 10.3421 92.7031 11.2018 92.7031 12.1543V17.2383C92.7031 18.1908 92.8516 19.0566 93.1484 19.8359C93.4577 20.6029 93.8906 21.2646 94.4473 21.8213C95.0039 22.3656 95.6657 22.7923 96.4326 23.1016C97.2119 23.3984 98.0716 23.5469 99.0117 23.5469H105.506C106.446 23.5469 107.299 23.3984 108.066 23.1016C108.846 22.7923 109.514 22.3656 110.07 21.8213C110.627 21.2646 111.054 20.6029 111.351 19.8359C111.66 19.0566 111.814 18.1908 111.814 17.2383V12.1543ZM147.477 25.5693C147.477 25.9157 147.415 26.2373 147.291 26.5342C147.167 26.8311 146.994 27.0908 146.771 27.3135C146.549 27.5238 146.289 27.6908 145.992 27.8145C145.695 27.9382 145.38 28 145.046 28H134.173C133.146 28 132.107 27.8887 131.056 27.666C130.004 27.4434 128.984 27.1032 127.994 26.6455C127.017 26.1755 126.095 25.5817 125.229 24.8643C124.364 24.1468 123.603 23.2995 122.947 22.3223C122.304 21.3327 121.797 20.207 121.426 18.9453C121.055 17.6712 120.869 16.2549 120.869 14.6963V1.39258H125.693V14.6963C125.693 16.057 125.879 17.2074 126.25 18.1475C126.633 19.0876 127.116 19.873 127.697 20.5039C128.279 21.1348 128.916 21.6296 129.608 21.9883C130.301 22.347 130.957 22.613 131.575 22.7861C132.206 22.9593 132.757 23.0706 133.227 23.1201C133.709 23.1572 134.024 23.1758 134.173 23.1758H142.652V1.39258H147.477V25.5693ZM174.975 17.127H159.741V12.2656H174.975V17.127ZM177.146 28H159.741C159.073 28 158.343 27.8825 157.552 27.6475C156.76 27.4124 156.024 27.029 155.344 26.4971C154.676 25.9528 154.113 25.2539 153.655 24.4004C153.21 23.5345 152.987 22.4769 152.987 21.2275V3.82324C152.987 3.48926 153.049 3.17383 153.173 2.87695C153.297 2.58008 153.464 2.32031 153.674 2.09766C153.896 1.875 154.156 1.70182 154.453 1.57812C154.75 1.45443 155.072 1.39258 155.418 1.39258H177.146V6.2168H157.812V21.2275C157.812 21.8584 157.979 22.3408 158.312 22.6748C158.646 23.0088 159.135 23.1758 159.778 23.1758H177.146V28ZM208.41 25.9404C208.41 26.2868 208.342 26.6084 208.206 26.9053C208.082 27.2021 207.909 27.4619 207.687 27.6846C207.476 27.8949 207.223 28.0618 206.926 28.1855C206.629 28.3092 206.313 28.3711 205.979 28.3711C205.683 28.3711 205.38 28.3154 205.07 28.2041C204.773 28.0928 204.507 27.9134 204.272 27.666L186.646 9.25977V28H181.821V3.45215C181.821 2.95736 181.957 2.51204 182.229 2.11621C182.514 1.70801 182.873 1.40495 183.306 1.20703C183.763 1.02148 184.233 0.97819 184.716 1.07715C185.198 1.16374 185.613 1.38639 185.959 1.74512L203.586 20.1328V1.39258H208.41V25.9404ZM238.079 6.2168H227.447V28H222.623V6.2168H211.973V1.39258H238.079V6.2168ZM266.078 28H244.072C243.726 28 243.404 27.9382 243.107 27.8145C242.811 27.6908 242.551 27.5238 242.328 27.3135C242.118 27.0908 241.951 26.8311 241.827 26.5342C241.703 26.2373 241.642 25.9157 241.642 25.5693V1.39258H246.466V23.1758H266.078V28ZM292.222 10.2988C292.222 11.3997 292.079 12.3831 291.795 13.249C291.523 14.1149 291.158 14.8818 290.7 15.5498C290.243 16.2054 289.704 16.7682 289.086 17.2383C288.48 17.7083 287.849 18.098 287.193 18.4072C286.538 18.7041 285.87 18.9206 285.189 19.0566C284.521 19.1927 283.891 19.2607 283.297 19.2607H281.349V28H276.487V19.2607H274.558C273.964 19.2607 273.327 19.1927 272.646 19.0566C271.979 18.9206 271.311 18.7041 270.643 18.4072C269.987 18.098 269.356 17.7083 268.75 17.2383C268.144 16.7682 267.606 16.2054 267.136 15.5498C266.678 14.8818 266.307 14.1149 266.022 13.249C265.75 12.3708 265.614 11.3874 265.614 10.2988V1.39258H270.438V10.2988C270.438 10.9297 270.537 11.4987 270.735 12.0059C270.933 12.5007 271.212 12.9274 271.57 13.2861C271.929 13.6449 272.362 13.9232 272.869 14.1211C273.389 14.3066 273.964 14.3994 274.595 14.3994H283.297C283.755 14.3252 284.225 14.2324 284.707 14.1211C285.189 13.9974 285.629 13.7933 286.024 13.5088C286.42 13.2243 286.748 12.8285 287.008 12.3213C287.268 11.8141 287.397 11.14 287.397 10.2988V1.39258H292.222V10.2988Z" fill="white"/>
</svg>
