<svg width="283" height="38" viewBox="0 0 283 38" fill="none" xmlns="http://www.w3.org/2000/svg">
<path d="M33.7925 27.9106C33.7925 29.2056 33.5684 30.4092 33.1201 31.5215C32.6719 32.6338 32.041 33.5967 31.2275 34.4102C30.4307 35.2236 29.4761 35.8628 28.3638 36.3276C27.2515 36.7759 26.0396 37 24.728 37H0.996094V30.5254H24.728C25.5249 30.5254 26.1475 30.3013 26.5957 29.853C27.0439 29.3882 27.2681 28.7407 27.2681 27.9106V1.29004H33.7925V27.9106ZM78.6914 22.5566C78.6914 24.7314 78.3179 26.7319 77.5708 28.5581C76.8237 30.3843 75.7861 31.9614 74.458 33.2896C73.1299 34.6177 71.5527 35.6553 69.7266 36.4023C67.917 37.1328 65.9414 37.498 63.7998 37.498H55.0342C52.8926 37.498 50.9087 37.1328 49.0825 36.4023C47.2563 35.6553 45.6792 34.6177 44.3511 33.2896C43.0229 31.9614 41.9771 30.3843 41.2134 28.5581C40.4663 26.7319 40.0928 24.7314 40.0928 22.5566V15.7334C40.0928 13.5752 40.4663 11.583 41.2134 9.75684C41.9771 7.91406 43.0229 6.33691 44.3511 5.02539C45.6792 3.69727 47.2563 2.65967 49.0825 1.9126C50.9087 1.16553 52.8926 0.791992 55.0342 0.791992H63.7998C65.9414 0.791992 67.917 1.16553 69.7266 1.9126C71.5527 2.65967 73.1299 3.69727 74.458 5.02539C75.7861 6.33691 76.8237 7.91406 77.5708 9.75684C78.3179 11.583 78.6914 13.5752 78.6914 15.7334V22.5566ZM72.2168 15.7334C72.2168 14.4551 72.0093 13.3013 71.5942 12.272C71.1958 11.2261 70.623 10.3379 69.876 9.60742C69.1455 8.86035 68.2573 8.2876 67.2114 7.88916C66.1821 7.47412 65.0449 7.2666 63.7998 7.2666H55.0342C53.7725 7.2666 52.6187 7.47412 51.5728 7.88916C50.5435 8.2876 49.6553 8.86035 48.9082 9.60742C48.1611 10.3379 47.5801 11.2261 47.165 12.272C46.7666 13.3013 46.5674 14.4551 46.5674 15.7334V22.5566C46.5674 23.835 46.7666 24.9971 47.165 26.043C47.5801 27.0723 48.1611 27.9604 48.9082 28.7075C49.6553 29.438 50.5435 30.0107 51.5728 30.4258C52.6187 30.8242 53.7725 31.0234 55.0342 31.0234H63.75C65.0117 31.0234 66.1572 30.8242 67.1865 30.4258C68.2324 30.0107 69.1289 29.438 69.876 28.7075C70.623 27.9604 71.1958 27.0723 71.5942 26.043C72.0093 24.9971 72.2168 23.835 72.2168 22.5566V15.7334ZM91.6157 37H85.1411V1.29004H91.6157V37ZM134.871 34.2358C134.871 34.7007 134.78 35.1323 134.597 35.5308C134.431 35.9292 134.199 36.2778 133.9 36.5767C133.618 36.8589 133.277 37.083 132.879 37.249C132.48 37.415 132.057 37.498 131.609 37.498C131.21 37.498 130.804 37.4233 130.389 37.2739C129.99 37.1245 129.633 36.8838 129.318 36.5518L105.661 11.8486V37H99.186V4.0542C99.186 3.39014 99.3687 2.79248 99.7339 2.26123C100.116 1.71338 100.597 1.30664 101.178 1.04102C101.792 0.791992 102.423 0.733887 103.071 0.866699C103.718 0.98291 104.274 1.28174 104.739 1.76318L128.396 26.4414V1.29004H134.871V34.2358ZM196.479 22.5566C196.479 24.7314 196.106 26.7319 195.359 28.5581C194.612 30.3843 193.574 31.9614 192.246 33.2896C190.918 34.6177 189.341 35.6553 187.515 36.4023C185.705 37.1328 183.729 37.498 181.588 37.498H172.822C170.681 37.498 168.697 37.1328 166.871 36.4023C165.044 35.6553 163.467 34.6177 162.139 33.2896C160.811 31.9614 159.765 30.3843 159.001 28.5581C158.254 26.7319 157.881 24.7314 157.881 22.5566V15.7334C157.881 13.5752 158.254 11.583 159.001 9.75684C159.765 7.91406 160.811 6.33691 162.139 5.02539C163.467 3.69727 165.044 2.65967 166.871 1.9126C168.697 1.16553 170.681 0.791992 172.822 0.791992H181.588C183.729 0.791992 185.705 1.16553 187.515 1.9126C189.341 2.65967 190.918 3.69727 192.246 5.02539C193.574 6.33691 194.612 7.91406 195.359 9.75684C196.106 11.583 196.479 13.5752 196.479 15.7334V22.5566ZM190.005 15.7334C190.005 14.4551 189.797 13.3013 189.382 12.272C188.984 11.2261 188.411 10.3379 187.664 9.60742C186.934 8.86035 186.045 8.2876 185 7.88916C183.97 7.47412 182.833 7.2666 181.588 7.2666H172.822C171.561 7.2666 170.407 7.47412 169.361 7.88916C168.332 8.2876 167.443 8.86035 166.696 9.60742C165.949 10.3379 165.368 11.2261 164.953 12.272C164.555 13.3013 164.355 14.4551 164.355 15.7334V22.5566C164.355 23.835 164.555 24.9971 164.953 26.043C165.368 27.0723 165.949 27.9604 166.696 28.7075C167.443 29.438 168.332 30.0107 169.361 30.4258C170.407 30.8242 171.561 31.0234 172.822 31.0234H181.538C182.8 31.0234 183.945 30.8242 184.975 30.4258C186.021 30.0107 186.917 29.438 187.664 28.7075C188.411 27.9604 188.984 27.0723 189.382 26.043C189.797 24.9971 190.005 23.835 190.005 22.5566V15.7334ZM237.867 33.7378C237.867 34.2026 237.784 34.6343 237.618 35.0327C237.452 35.4312 237.22 35.7798 236.921 36.0786C236.622 36.3608 236.273 36.585 235.875 36.751C235.477 36.917 235.053 37 234.605 37H220.012C218.634 37 217.24 36.8506 215.829 36.5518C214.417 36.2529 213.048 35.7964 211.72 35.1821C210.408 34.5513 209.171 33.7544 208.009 32.7915C206.847 31.8286 205.826 30.6914 204.946 29.3799C204.083 28.0518 203.402 26.541 202.904 24.8477C202.406 23.1377 202.157 21.2368 202.157 19.145V1.29004H208.632V19.145C208.632 20.9712 208.881 22.5151 209.379 23.7769C209.894 25.0386 210.541 26.0928 211.321 26.9395C212.102 27.7861 212.957 28.4502 213.886 28.9316C214.816 29.4131 215.696 29.77 216.526 30.0024C217.373 30.2349 218.111 30.3843 218.742 30.4507C219.39 30.5005 219.813 30.5254 220.012 30.5254H231.393V1.29004H237.867V33.7378ZM281.098 13.293C281.098 14.7705 280.915 16.0903 280.55 17.2524C280.185 18.4146 279.687 19.4438 279.056 20.3403C278.441 21.2202 277.728 21.9756 276.914 22.6064C276.101 23.2373 275.246 23.7603 274.349 24.1753C273.469 24.5737 272.573 24.8643 271.66 25.0469C270.763 25.2295 269.917 25.3208 269.12 25.3208L282.642 37H272.631L259.134 25.3208H254.477V18.8462H269.12C269.933 18.7798 270.672 18.6138 271.336 18.3481C272.017 18.0659 272.598 17.6924 273.079 17.2275C273.577 16.7627 273.959 16.2065 274.225 15.5591C274.49 14.895 274.623 14.1396 274.623 13.293V9.20898C274.623 8.84375 274.573 8.56982 274.474 8.38721C274.391 8.18799 274.274 8.04687 274.125 7.96387C273.992 7.86426 273.843 7.80615 273.677 7.78955C273.527 7.77295 273.386 7.76465 273.253 7.76465H251.887V37H245.413V4.55225C245.413 4.104 245.496 3.68066 245.662 3.28223C245.828 2.88379 246.052 2.53516 246.334 2.23633C246.633 1.9375 246.981 1.70508 247.38 1.53906C247.778 1.37305 248.21 1.29004 248.675 1.29004H273.253C274.698 1.29004 275.918 1.55566 276.914 2.08691C277.91 2.60156 278.715 3.25732 279.33 4.0542C279.96 4.83447 280.409 5.68115 280.674 6.59424C280.957 7.50732 281.098 8.3623 281.098 9.15918V13.293Z" fill="white"/>
</svg>
