<svg width="424" height="98" viewBox="0 0 424 98" fill="none" xmlns="http://www.w3.org/2000/svg">
<path d="M42.3223 37H35.7979V15.7334L24.3179 35.9292C24.0356 36.4438 23.6372 36.834 23.1226 37.0996C22.6245 37.3652 22.085 37.498 21.5039 37.498C20.9395 37.498 20.4082 37.3652 19.9102 37.0996C19.4287 36.834 19.0469 36.4438 18.7646 35.9292L7.23486 15.7334V37H0.760254V4.0542C0.760254 3.30713 0.976074 2.64307 1.40771 2.06201C1.85596 1.48096 2.43701 1.09082 3.15088 0.891602C3.49951 0.808594 3.84814 0.783691 4.19678 0.816895C4.54541 0.833496 4.87744 0.908203 5.19287 1.04102C5.5249 1.15723 5.82373 1.33154 6.08936 1.56396C6.35498 1.77979 6.5791 2.04541 6.76172 2.36084L21.5039 27.9854L36.2461 2.36084C36.6279 1.72998 37.1509 1.28174 37.8149 1.01611C38.4956 0.750488 39.2012 0.708984 39.9316 0.891602C40.6289 1.09082 41.2017 1.48096 41.6499 2.06201C42.0981 2.64307 42.3223 3.30713 42.3223 4.0542V37ZM79.2275 22.4072H58.7827V15.8828H79.2275V22.4072ZM82.1411 37H58.7827C57.8862 37 56.9067 36.8423 55.8442 36.5269C54.7817 36.2114 53.7939 35.6968 52.8809 34.9829C51.9844 34.2524 51.229 33.3145 50.6147 32.1689C50.0171 31.0068 49.7183 29.5874 49.7183 27.9106V4.55225C49.7183 4.104 49.8013 3.68066 49.9673 3.28223C50.1333 2.88379 50.3574 2.53516 50.6396 2.23633C50.9385 1.9375 51.2871 1.70508 51.6855 1.53906C52.084 1.37305 52.5156 1.29004 52.9805 1.29004H82.1411V7.76465H56.1929V27.9106C56.1929 28.7573 56.417 29.4048 56.8652 29.853C57.3135 30.3013 57.9692 30.5254 58.8325 30.5254H82.1411V37ZM120.69 7.76465H106.421V37H99.9463V7.76465H85.6523V1.29004H120.69V7.76465ZM159.264 37H152.789V28.2344H130.028V37H123.554V19.145C123.554 16.5386 124.002 14.1396 124.898 11.9482C125.795 9.75684 127.04 7.87256 128.634 6.29541C130.228 4.71826 132.112 3.48975 134.287 2.60986C136.461 1.72998 138.835 1.29004 141.409 1.29004H156.001C156.45 1.29004 156.873 1.37305 157.271 1.53906C157.67 1.70508 158.019 1.9375 158.317 2.23633C158.616 2.53516 158.849 2.88379 159.015 3.28223C159.181 3.68066 159.264 4.104 159.264 4.55225V37ZM130.028 21.7598H152.789V7.76465H141.409C141.209 7.76465 140.786 7.79785 140.139 7.86426C139.508 7.91406 138.769 8.05518 137.922 8.2876C137.092 8.52002 136.212 8.87695 135.283 9.3584C134.353 9.83984 133.498 10.5039 132.718 11.3506C131.938 12.1973 131.29 13.2598 130.775 14.5381C130.277 15.7998 130.028 17.3354 130.028 19.145V21.7598ZM219.079 13.293C219.079 14.7705 218.896 16.0903 218.531 17.2524C218.166 18.4146 217.668 19.4438 217.037 20.3403C216.423 21.2202 215.709 21.9756 214.896 22.6064C214.082 23.2373 213.227 23.7603 212.331 24.1753C211.451 24.5737 210.554 24.8643 209.641 25.0469C208.745 25.2295 207.898 25.3208 207.101 25.3208L220.623 37H210.612L197.115 25.3208H192.458V18.8462H207.101C207.915 18.7798 208.653 18.6138 209.317 18.3481C209.998 18.0659 210.579 17.6924 211.061 17.2275C211.559 16.7627 211.94 16.2065 212.206 15.5591C212.472 14.895 212.604 14.1396 212.604 13.293V9.20898C212.604 8.84375 212.555 8.56982 212.455 8.38721C212.372 8.18799 212.256 8.04687 212.106 7.96387C211.974 7.86426 211.824 7.80615 211.658 7.78955C211.509 7.77295 211.368 7.76465 211.235 7.76465H189.869V37H183.394V4.55225C183.394 4.104 183.477 3.68066 183.643 3.28223C183.809 2.88379 184.033 2.53516 184.315 2.23633C184.614 1.9375 184.963 1.70508 185.361 1.53906C185.76 1.37305 186.191 1.29004 186.656 1.29004H211.235C212.679 1.29004 213.899 1.55566 214.896 2.08691C215.892 2.60156 216.697 3.25732 217.311 4.0542C217.942 4.83447 218.39 5.68115 218.656 6.59424C218.938 7.50732 219.079 8.3623 219.079 9.15918V13.293ZM254.938 22.4072H234.494V15.8828H254.938V22.4072ZM257.852 37H234.494C233.597 37 232.618 36.8423 231.555 36.5269C230.493 36.2114 229.505 35.6968 228.592 34.9829C227.695 34.2524 226.94 33.3145 226.326 32.1689C225.728 31.0068 225.429 29.5874 225.429 27.9106V4.55225C225.429 4.104 225.512 3.68066 225.678 3.28223C225.844 2.88379 226.068 2.53516 226.351 2.23633C226.649 1.9375 226.998 1.70508 227.396 1.53906C227.795 1.37305 228.227 1.29004 228.691 1.29004H257.852V7.76465H231.904V27.9106C231.904 28.7573 232.128 29.4048 232.576 29.853C233.024 30.3013 233.68 30.5254 234.543 30.5254H257.852V37ZM295.853 37H272.495C271.897 37 271.25 36.9336 270.552 36.8008C269.872 36.6514 269.191 36.4272 268.51 36.1284C267.846 35.8296 267.207 35.4478 266.593 34.9829C265.979 34.5015 265.431 33.9287 264.949 33.2646C264.484 32.584 264.111 31.8037 263.829 30.9238C263.546 30.0273 263.405 29.0229 263.405 27.9106V10.3794C263.405 9.78174 263.472 9.14258 263.604 8.46191C263.754 7.76465 263.978 7.08398 264.277 6.41992C264.576 5.73926 264.966 5.0918 265.447 4.47754C265.929 3.86328 266.501 3.32373 267.166 2.85889C267.846 2.37744 268.626 1.99561 269.506 1.71338C270.386 1.43115 271.382 1.29004 272.495 1.29004H295.853V7.76465H272.495C271.648 7.76465 271 7.98877 270.552 8.43701C270.104 8.88525 269.88 9.54932 269.88 10.4292V27.9106C269.88 28.7407 270.104 29.3882 270.552 29.853C271.017 30.3013 271.665 30.5254 272.495 30.5254H295.853V37ZM338.909 22.5566C338.909 24.7314 338.536 26.7319 337.789 28.5581C337.042 30.3843 336.004 31.9614 334.676 33.2896C333.348 34.6177 331.771 35.6553 329.944 36.4023C328.135 37.1328 326.159 37.498 324.018 37.498H315.252C313.11 37.498 311.126 37.1328 309.3 36.4023C307.474 35.6553 305.897 34.6177 304.569 33.2896C303.241 31.9614 302.195 30.3843 301.431 28.5581C300.684 26.7319 300.311 24.7314 300.311 22.5566V15.7334C300.311 13.5752 300.684 11.583 301.431 9.75684C302.195 7.91406 303.241 6.33691 304.569 5.02539C305.897 3.69727 307.474 2.65967 309.3 1.9126C311.126 1.16553 313.11 0.791992 315.252 0.791992H324.018C326.159 0.791992 328.135 1.16553 329.944 1.9126C331.771 2.65967 333.348 3.69727 334.676 5.02539C336.004 6.33691 337.042 7.91406 337.789 9.75684C338.536 11.583 338.909 13.5752 338.909 15.7334V22.5566ZM332.435 15.7334C332.435 14.4551 332.227 13.3013 331.812 12.272C331.414 11.2261 330.841 10.3379 330.094 9.60742C329.363 8.86035 328.475 8.2876 327.429 7.88916C326.4 7.47412 325.263 7.2666 324.018 7.2666H315.252C313.99 7.2666 312.836 7.47412 311.791 7.88916C310.761 8.2876 309.873 8.86035 309.126 9.60742C308.379 10.3379 307.798 11.2261 307.383 12.272C306.984 13.3013 306.785 14.4551 306.785 15.7334V22.5566C306.785 23.835 306.984 24.9971 307.383 26.043C307.798 27.0723 308.379 27.9604 309.126 28.7075C309.873 29.438 310.761 30.0107 311.791 30.4258C312.836 30.8242 313.99 31.0234 315.252 31.0234H323.968C325.229 31.0234 326.375 30.8242 327.404 30.4258C328.45 30.0107 329.347 29.438 330.094 28.7075C330.841 27.9604 331.414 27.0723 331.812 26.043C332.227 24.9971 332.435 23.835 332.435 22.5566V15.7334ZM380.994 13.293C380.994 14.7705 380.812 16.0903 380.446 17.2524C380.081 18.4146 379.583 19.4438 378.952 20.3403C378.338 21.2202 377.624 21.9756 376.811 22.6064C375.997 23.2373 375.142 23.7603 374.246 24.1753C373.366 24.5737 372.469 24.8643 371.556 25.0469C370.66 25.2295 369.813 25.3208 369.016 25.3208L382.538 37H372.527L359.03 25.3208H354.374V18.8462H369.016C369.83 18.7798 370.568 18.6138 371.232 18.3481C371.913 18.0659 372.494 17.6924 372.976 17.2275C373.474 16.7627 373.855 16.2065 374.121 15.5591C374.387 14.895 374.52 14.1396 374.52 13.293V9.20898C374.52 8.84375 374.47 8.56982 374.37 8.38721C374.287 8.18799 374.171 8.04687 374.021 7.96387C373.889 7.86426 373.739 7.80615 373.573 7.78955C373.424 7.77295 373.283 7.76465 373.15 7.76465H351.784V37H345.309V4.55225C345.309 4.104 345.392 3.68066 345.558 3.28223C345.724 2.88379 345.948 2.53516 346.23 2.23633C346.529 1.9375 346.878 1.70508 347.276 1.53906C347.675 1.37305 348.106 1.29004 348.571 1.29004H373.15C374.594 1.29004 375.814 1.55566 376.811 2.08691C377.807 2.60156 378.612 3.25732 379.226 4.0542C379.857 4.83447 380.305 5.68115 380.571 6.59424C380.853 7.50732 380.994 8.3623 380.994 9.15918V13.293ZM423.129 22.0586C423.129 24.2334 422.747 26.2339 421.983 28.0601C421.236 29.8862 420.199 31.4634 418.871 32.7915C417.542 34.103 415.965 35.1323 414.139 35.8794C412.313 36.6265 410.329 37 408.188 37H390.706C390.241 37 389.81 36.917 389.411 36.751C389.013 36.585 388.664 36.3608 388.365 36.0786C388.083 35.7798 387.859 35.4312 387.693 35.0327C387.527 34.6343 387.444 34.2026 387.444 33.7378V4.55225C387.444 4.104 387.527 3.68066 387.693 3.28223C387.859 2.88379 388.083 2.53516 388.365 2.23633C388.664 1.9375 389.013 1.70508 389.411 1.53906C389.81 1.37305 390.241 1.29004 390.706 1.29004H408.188C410.329 1.29004 412.313 1.66357 414.139 2.41064C415.965 3.15771 417.542 4.19531 418.871 5.52344C420.199 6.83496 421.236 8.41211 421.983 10.2549C422.747 12.0811 423.129 14.0732 423.129 16.2314V22.0586ZM416.654 16.2314C416.654 14.9697 416.447 13.8159 416.032 12.77C415.633 11.7241 415.061 10.8359 414.313 10.1055C413.566 9.3584 412.67 8.78564 411.624 8.38721C410.595 7.97217 409.449 7.76465 408.188 7.76465H393.918V30.5254H408.188C409.449 30.5254 410.595 30.3262 411.624 29.9277C412.67 29.5127 413.566 28.9399 414.313 28.2095C415.061 27.4624 415.633 26.5742 416.032 25.5449C416.447 24.499 416.654 23.3369 416.654 22.0586V16.2314ZM33.5566 98H4.02246C3.55762 98 3.12598 97.917 2.72754 97.751C2.3291 97.585 1.98047 97.3608 1.68164 97.0786C1.39941 96.7798 1.17529 96.4312 1.00928 96.0327C0.843262 95.6343 0.760254 95.2026 0.760254 94.7378V62.29H7.23486V91.5254H33.5566V98ZM73.3506 98H66.876V89.2344H44.1152V98H37.6406V80.145C37.6406 77.5386 38.0889 75.1396 38.9854 72.9482C39.8818 70.7568 41.127 68.8726 42.7207 67.2954C44.3145 65.7183 46.1987 64.4897 48.3735 63.6099C50.5483 62.73 52.9224 62.29 55.4956 62.29H70.0884C70.5366 62.29 70.96 62.373 71.3584 62.5391C71.7568 62.7051 72.1055 62.9375 72.4043 63.2363C72.7031 63.5352 72.9355 63.8838 73.1016 64.2822C73.2676 64.6807 73.3506 65.104 73.3506 65.5522V98ZM44.1152 82.7598H66.876V68.7646H55.4956C55.2964 68.7646 54.873 68.7979 54.2256 68.8643C53.5947 68.9141 52.856 69.0552 52.0093 69.2876C51.1792 69.52 50.2993 69.877 49.3696 70.3584C48.4399 70.8398 47.585 71.5039 46.8047 72.3506C46.0244 73.1973 45.377 74.2598 44.8623 75.5381C44.3643 76.7998 44.1152 78.3354 44.1152 80.145V82.7598ZM116.531 90.1558C116.531 90.9526 116.39 91.8076 116.108 92.7207C115.842 93.6338 115.394 94.4805 114.763 95.2607C114.149 96.041 113.344 96.6968 112.348 97.228C111.352 97.7427 110.131 98 108.687 98H84.1084C83.6436 98 83.2119 97.917 82.8135 97.751C82.415 97.585 82.0664 97.3608 81.7676 97.0786C81.4854 96.7798 81.2612 96.4312 81.0952 96.0327C80.9292 95.6343 80.8462 95.2026 80.8462 94.7378V65.5522C80.8462 65.104 80.9292 64.6807 81.0952 64.2822C81.2612 63.8838 81.4854 63.5352 81.7676 63.2363C82.0664 62.9375 82.415 62.7051 82.8135 62.5391C83.2119 62.373 83.6436 62.29 84.1084 62.29H105.773C106.57 62.29 107.425 62.4312 108.338 62.7134C109.251 62.9956 110.098 63.4521 110.878 64.083C111.675 64.6973 112.331 65.5024 112.846 66.4985C113.377 67.4946 113.643 68.7148 113.643 70.1592V71.3794C113.643 72.5249 113.452 73.7617 113.07 75.0898C112.688 76.4014 112.074 77.6465 111.227 78.8252C111.958 79.2734 112.638 79.813 113.269 80.4438C113.917 81.0747 114.481 81.8052 114.962 82.6353C115.444 83.4653 115.826 84.4033 116.108 85.4492C116.39 86.4951 116.531 87.6489 116.531 88.9106V90.1558ZM110.057 88.9106C110.057 88.064 109.924 87.3086 109.658 86.6445C109.393 85.9639 109.019 85.3828 108.538 84.9014C108.056 84.4199 107.475 84.0547 106.794 83.8057C106.114 83.54 105.35 83.4072 104.503 83.4072H89.9106V76.8828H101.59C102.437 76.8828 103.2 76.7583 103.881 76.5093C104.562 76.2437 105.143 75.8701 105.624 75.3887C106.105 74.9072 106.471 74.3345 106.72 73.6704C106.985 72.9897 107.118 72.2261 107.118 71.3794V70.1592C107.118 69.2295 106.67 68.7646 105.773 68.7646H87.3208V91.5254H108.687C108.803 91.5254 108.944 91.5171 109.11 91.5005C109.276 91.4839 109.426 91.4341 109.559 91.3511C109.691 91.2681 109.808 91.127 109.907 90.9277C110.007 90.7285 110.057 90.4546 110.057 90.106V88.9106ZM151.544 83.4072H131.099V76.8828H151.544V83.4072ZM154.458 98H131.099C130.203 98 129.223 97.8423 128.161 97.5269C127.098 97.2114 126.11 96.6968 125.197 95.9829C124.301 95.2524 123.545 94.3145 122.931 93.1689C122.333 92.0068 122.035 90.5874 122.035 88.9106V65.5522C122.035 65.104 122.118 64.6807 122.284 64.2822C122.45 63.8838 122.674 63.5352 122.956 63.2363C123.255 62.9375 123.604 62.7051 124.002 62.5391C124.4 62.373 124.832 62.29 125.297 62.29H154.458V68.7646H128.509V88.9106C128.509 89.7573 128.733 90.4048 129.182 90.853C129.63 91.3013 130.286 91.5254 131.149 91.5254H154.458V98ZM193.529 98H163.995C163.53 98 163.099 97.917 162.7 97.751C162.302 97.585 161.953 97.3608 161.654 97.0786C161.372 96.7798 161.148 96.4312 160.982 96.0327C160.816 95.6343 160.733 95.2026 160.733 94.7378V62.29H167.208V91.5254H193.529V98Z" fill="white"/>
</svg>
