<svg width="98" height="28" viewBox="0 0 98 28" fill="none" xmlns="http://www.w3.org/2000/svg">
<path d="M30.8491 27H26.1157V11.5713L17.7871 26.2231C17.5824 26.5965 17.2933 26.8796 16.9199 27.0723C16.5586 27.265 16.1672 27.3613 15.7456 27.3613C15.3361 27.3613 14.9507 27.265 14.5894 27.0723C14.2401 26.8796 13.9631 26.5965 13.7583 26.2231L5.39355 11.5713V27H0.696289V3.09814C0.696289 2.55615 0.852865 2.07438 1.16602 1.65283C1.49121 1.23128 1.91276 0.948242 2.43066 0.803711C2.68359 0.74349 2.93652 0.725423 3.18945 0.749512C3.44238 0.761556 3.68327 0.815755 3.91211 0.912109C4.15299 0.996419 4.36979 1.12288 4.5625 1.2915C4.75521 1.44808 4.91781 1.64079 5.05029 1.86963L15.7456 20.46L26.4409 1.86963C26.7179 1.41195 27.0973 1.08675 27.5791 0.894043C28.0729 0.701335 28.5848 0.671224 29.1147 0.803711C29.6206 0.948242 30.0361 1.23128 30.3613 1.65283C30.6865 2.07438 30.8491 2.55615 30.8491 3.09814V27ZM62.2124 9.80078C62.2124 10.8727 62.0799 11.8302 61.8149 12.6733C61.55 13.5164 61.1886 14.2632 60.731 14.9136C60.2853 15.5519 59.7674 16.0999 59.1772 16.5576C58.5871 17.0153 57.9668 17.3947 57.3164 17.6958C56.6781 17.9849 56.0277 18.1956 55.3652 18.3281C54.7148 18.4606 54.1006 18.5269 53.5225 18.5269L63.3325 27H56.0698L46.2778 18.5269H42.8994V13.8296H53.5225C54.1126 13.7814 54.6486 13.661 55.1304 13.4683C55.6242 13.2635 56.0457 12.9925 56.395 12.6553C56.7563 12.318 57.0334 11.9146 57.2261 11.4448C57.4188 10.9631 57.5151 10.415 57.5151 9.80078V6.83789C57.5151 6.57292 57.479 6.37419 57.4067 6.2417C57.3465 6.09717 57.2622 5.99479 57.1538 5.93457C57.0575 5.8623 56.9491 5.82015 56.8286 5.80811C56.7202 5.79606 56.6178 5.79004 56.5215 5.79004H41.0205V27H36.3232V3.45947C36.3232 3.13428 36.3835 2.82715 36.5039 2.53809C36.6243 2.24902 36.7869 1.99609 36.9917 1.7793C37.2085 1.5625 37.4614 1.39388 37.7505 1.27344C38.0396 1.15299 38.3527 1.09277 38.6899 1.09277H56.5215C57.5693 1.09277 58.4546 1.28548 59.1772 1.6709C59.8999 2.04427 60.484 2.52002 60.9297 3.09814C61.3874 3.66423 61.7126 4.27848 61.9053 4.94092C62.11 5.60335 62.2124 6.22363 62.2124 6.80176V9.80078ZM90.7212 27H69.2944C68.9572 27 68.644 26.9398 68.355 26.8193C68.0659 26.6989 67.813 26.5363 67.5962 26.3315C67.3914 26.1147 67.2288 25.8618 67.1084 25.5728C66.988 25.2837 66.9277 24.9705 66.9277 24.6333V1.09277H71.625V22.3027H90.7212V27ZM97.5684 24.6333C97.5684 24.9585 97.5021 25.2656 97.3696 25.5547C97.2492 25.8317 97.0806 26.0786 96.8638 26.2954C96.659 26.5002 96.4121 26.6628 96.123 26.7832C95.846 26.9036 95.5509 26.9639 95.2378 26.9639C94.9126 26.9639 94.6055 26.9036 94.3164 26.7832C94.0394 26.6628 93.7925 26.5002 93.5757 26.2954C93.3709 26.0786 93.2083 25.8317 93.0879 25.5547C92.9674 25.2656 92.9072 24.9585 92.9072 24.6333C92.9072 24.3201 92.9674 24.0251 93.0879 23.748C93.2083 23.459 93.3709 23.2121 93.5757 23.0073C93.7925 22.7905 94.0394 22.6219 94.3164 22.5015C94.6055 22.369 94.9126 22.3027 95.2378 22.3027C95.5509 22.3027 95.846 22.369 96.123 22.5015C96.4121 22.6219 96.659 22.7905 96.8638 23.0073C97.0806 23.2121 97.2492 23.459 97.3696 23.748C97.5021 24.0251 97.5684 24.3201 97.5684 24.6333Z" fill="white"/>
</svg>
