<svg width="253" height="33" viewBox="0 0 253 33" fill="none" xmlns="http://www.w3.org/2000/svg">
<path d="M29.7266 17.2383C29.7266 18.4753 29.5596 19.6442 29.2256 20.7451C28.904 21.8337 28.4401 22.8232 27.834 23.7139C27.2402 24.6045 26.5166 25.3838 25.6631 26.0518C24.8219 26.7197 23.8818 27.2454 22.8428 27.6289L28.4834 32.1006H21.4883L16.8496 28.3711H12.0996C10.5039 28.3711 9.02572 28.099 7.66504 27.5547C6.30436 26.998 5.12923 26.2249 4.13965 25.2354C3.15007 24.2458 2.37077 23.0706 1.80176 21.71C1.24512 20.3493 0.966797 18.8587 0.966797 17.2383V12.1543C0.966797 10.5462 1.24512 9.06185 1.80176 7.70117C2.37077 6.32812 3.15007 5.15299 4.13965 4.17578C5.12923 3.1862 6.30436 2.41309 7.66504 1.85645C9.02572 1.2998 10.5039 1.02148 12.0996 1.02148H18.6309C20.2266 1.02148 21.6986 1.2998 23.0469 1.85645C24.4076 2.41309 25.5827 3.1862 26.5723 4.17578C27.5618 5.15299 28.335 6.32812 28.8916 7.70117C29.4482 9.06185 29.7266 10.5462 29.7266 12.1543V17.2383ZM24.9023 12.1543C24.9023 11.2018 24.7477 10.3421 24.4385 9.5752C24.1416 8.7959 23.7148 8.13411 23.1582 7.58984C22.6139 7.0332 21.9521 6.60645 21.1729 6.30957C20.4059 6.00033 19.5586 5.8457 18.6309 5.8457H12.0996C11.1595 5.8457 10.2998 6.00033 9.52051 6.30957C8.75358 6.60645 8.0918 7.0332 7.53516 7.58984C6.97852 8.13411 6.54557 8.7959 6.23633 9.5752C5.93945 10.3421 5.79102 11.2018 5.79102 12.1543V17.2383C5.79102 18.1908 5.93945 19.0566 6.23633 19.8359C6.54557 20.6029 6.97852 21.2646 7.53516 21.8213C8.0918 22.3656 8.75358 22.7923 9.52051 23.1016C10.2998 23.3984 11.1595 23.5469 12.0996 23.5469H18.5938C19.5339 23.5469 20.3874 23.3984 21.1543 23.1016C21.9336 22.7923 22.6016 22.3656 23.1582 21.8213C23.7148 21.2646 24.1416 20.6029 24.4385 19.8359C24.7477 19.0566 24.9023 18.1908 24.9023 17.2383V12.1543ZM60.5645 25.5693C60.5645 25.9157 60.5026 26.2373 60.3789 26.5342C60.2552 26.8311 60.082 27.0908 59.8594 27.3135C59.6367 27.5238 59.377 27.6908 59.0801 27.8145C58.7832 27.9382 58.4678 28 58.1338 28H47.2607C46.234 28 45.195 27.8887 44.1436 27.666C43.0921 27.4434 42.0716 27.1032 41.082 26.6455C40.1048 26.1755 39.1833 25.5817 38.3174 24.8643C37.4515 24.1468 36.6908 23.2995 36.0352 22.3223C35.3919 21.3327 34.8848 20.207 34.5137 18.9453C34.1426 17.6712 33.957 16.2549 33.957 14.6963V1.39258H38.7812V14.6963C38.7812 16.057 38.9668 17.2074 39.3379 18.1475C39.7214 19.0876 40.2038 19.873 40.7852 20.5039C41.3665 21.1348 42.0036 21.6296 42.6963 21.9883C43.389 22.347 44.0446 22.613 44.6631 22.7861C45.2939 22.9593 45.8444 23.0706 46.3145 23.1201C46.7969 23.1572 47.1123 23.1758 47.2607 23.1758H55.7402V1.39258H60.5645V25.5693ZM88.0625 17.127H72.8291V12.2656H88.0625V17.127ZM90.2334 28H72.8291C72.1611 28 71.4313 27.8825 70.6396 27.6475C69.848 27.4124 69.112 27.029 68.4316 26.4971C67.7637 25.9528 67.2008 25.2539 66.7432 24.4004C66.2979 23.5345 66.0752 22.4769 66.0752 21.2275V3.82324C66.0752 3.48926 66.137 3.17383 66.2607 2.87695C66.3844 2.58008 66.5514 2.32031 66.7617 2.09766C66.9844 1.875 67.2441 1.70182 67.541 1.57812C67.8379 1.45443 68.1595 1.39258 68.5059 1.39258H90.2334V6.2168H70.8994V21.2275C70.8994 21.8584 71.0664 22.3408 71.4004 22.6748C71.7344 23.0088 72.223 23.1758 72.8662 23.1758H90.2334V28ZM120.366 20.1699C120.366 21.1224 120.243 21.9821 119.995 22.749C119.76 23.5036 119.445 24.1715 119.049 24.7529C118.653 25.3343 118.189 25.8291 117.657 26.2373C117.125 26.6455 116.575 26.9795 116.006 27.2393C115.437 27.499 114.855 27.6908 114.262 27.8145C113.68 27.9382 113.13 28 112.61 28H94V23.1758H112.61C113.538 23.1758 114.256 22.9036 114.763 22.3594C115.282 21.8151 115.542 21.0853 115.542 20.1699C115.542 19.7246 115.474 19.3164 115.338 18.9453C115.202 18.5742 115.004 18.2526 114.744 17.9805C114.497 17.7083 114.188 17.498 113.816 17.3496C113.458 17.2012 113.056 17.127 112.61 17.127H101.515C100.735 17.127 99.8942 16.9909 98.9912 16.7188C98.0882 16.4342 97.2471 15.9827 96.4678 15.3643C95.7008 14.7458 95.0576 13.9355 94.5381 12.9336C94.0309 11.9316 93.7773 10.707 93.7773 9.25977C93.7773 7.8125 94.0309 6.59408 94.5381 5.60449C95.0576 4.60254 95.7008 3.79232 96.4678 3.17383C97.2471 2.54297 98.0882 2.09147 98.9912 1.81934C99.8942 1.53483 100.735 1.39258 101.515 1.39258H117.936V6.2168H101.515C100.599 6.2168 99.8818 6.49512 99.3623 7.05176C98.8551 7.6084 98.6016 8.3444 98.6016 9.25977C98.6016 10.1875 98.8551 10.9235 99.3623 11.4678C99.8818 11.9997 100.599 12.2656 101.515 12.2656H112.61H112.647C113.167 12.278 113.717 12.3522 114.299 12.4883C114.88 12.612 115.455 12.8099 116.024 13.082C116.606 13.3542 117.156 13.7005 117.676 14.1211C118.195 14.5293 118.653 15.0241 119.049 15.6055C119.457 16.1868 119.779 16.8548 120.014 17.6094C120.249 18.3639 120.366 19.2174 120.366 20.1699ZM148.124 6.2168H137.492V28H132.668V6.2168H122.018V1.39258H148.124V6.2168ZM156.548 28H151.724V1.39258H156.548V28ZM190.113 17.2383C190.113 18.8587 189.835 20.3493 189.278 21.71C188.722 23.0706 187.949 24.2458 186.959 25.2354C185.969 26.2249 184.794 26.998 183.434 27.5547C182.085 28.099 180.613 28.3711 179.018 28.3711H172.486C170.891 28.3711 169.412 28.099 168.052 27.5547C166.691 26.998 165.516 26.2249 164.526 25.2354C163.537 24.2458 162.757 23.0706 162.188 21.71C161.632 20.3493 161.354 18.8587 161.354 17.2383V12.1543C161.354 10.5462 161.632 9.06185 162.188 7.70117C162.757 6.32812 163.537 5.15299 164.526 4.17578C165.516 3.1862 166.691 2.41309 168.052 1.85645C169.412 1.2998 170.891 1.02148 172.486 1.02148H179.018C180.613 1.02148 182.085 1.2998 183.434 1.85645C184.794 2.41309 185.969 3.1862 186.959 4.17578C187.949 5.15299 188.722 6.32812 189.278 7.70117C189.835 9.06185 190.113 10.5462 190.113 12.1543V17.2383ZM185.289 12.1543C185.289 11.2018 185.134 10.3421 184.825 9.5752C184.528 8.7959 184.102 8.13411 183.545 7.58984C183.001 7.0332 182.339 6.60645 181.56 6.30957C180.793 6.00033 179.945 5.8457 179.018 5.8457H172.486C171.546 5.8457 170.687 6.00033 169.907 6.30957C169.14 6.60645 168.479 7.0332 167.922 7.58984C167.365 8.13411 166.932 8.7959 166.623 9.5752C166.326 10.3421 166.178 11.2018 166.178 12.1543V17.2383C166.178 18.1908 166.326 19.0566 166.623 19.8359C166.932 20.6029 167.365 21.2646 167.922 21.8213C168.479 22.3656 169.14 22.7923 169.907 23.1016C170.687 23.3984 171.546 23.5469 172.486 23.5469H178.98C179.921 23.5469 180.774 23.3984 181.541 23.1016C182.32 22.7923 182.988 22.3656 183.545 21.8213C184.102 21.2646 184.528 20.6029 184.825 19.8359C185.134 19.0566 185.289 18.1908 185.289 17.2383V12.1543ZM221.471 25.9404C221.471 26.2868 221.403 26.6084 221.267 26.9053C221.143 27.2021 220.97 27.4619 220.747 27.6846C220.537 27.8949 220.283 28.0618 219.986 28.1855C219.689 28.3092 219.374 28.3711 219.04 28.3711C218.743 28.3711 218.44 28.3154 218.131 28.2041C217.834 28.0928 217.568 27.9134 217.333 27.666L199.706 9.25977V28H194.882V3.45215C194.882 2.95736 195.018 2.51204 195.29 2.11621C195.575 1.70801 195.933 1.40495 196.366 1.20703C196.824 1.02148 197.294 0.97819 197.776 1.07715C198.259 1.16374 198.673 1.38639 199.02 1.74512L216.646 20.1328V1.39258H221.471V25.9404ZM252.661 20.1699C252.661 21.1224 252.537 21.9821 252.29 22.749C252.055 23.5036 251.74 24.1715 251.344 24.7529C250.948 25.3343 250.484 25.8291 249.952 26.2373C249.42 26.6455 248.87 26.9795 248.301 27.2393C247.732 27.499 247.15 27.6908 246.557 27.8145C245.975 27.9382 245.425 28 244.905 28H226.295V23.1758H244.905C245.833 23.1758 246.55 22.9036 247.058 22.3594C247.577 21.8151 247.837 21.0853 247.837 20.1699C247.837 19.7246 247.769 19.3164 247.633 18.9453C247.497 18.5742 247.299 18.2526 247.039 17.9805C246.792 17.7083 246.482 17.498 246.111 17.3496C245.753 17.2012 245.351 17.127 244.905 17.127H233.81C233.03 17.127 232.189 16.9909 231.286 16.7188C230.383 16.4342 229.542 15.9827 228.763 15.3643C227.996 14.7458 227.353 13.9355 226.833 12.9336C226.326 11.9316 226.072 10.707 226.072 9.25977C226.072 7.8125 226.326 6.59408 226.833 5.60449C227.353 4.60254 227.996 3.79232 228.763 3.17383C229.542 2.54297 230.383 2.09147 231.286 1.81934C232.189 1.53483 233.03 1.39258 233.81 1.39258H250.23V6.2168H233.81C232.894 6.2168 232.177 6.49512 231.657 7.05176C231.15 7.6084 230.896 8.3444 230.896 9.25977C230.896 10.1875 231.15 10.9235 231.657 11.4678C232.177 11.9997 232.894 12.2656 233.81 12.2656H244.905H244.942C245.462 12.278 246.012 12.3522 246.594 12.4883C247.175 12.612 247.75 12.8099 248.319 13.082C248.901 13.3542 249.451 13.7005 249.971 14.1211C250.49 14.5293 250.948 15.0241 251.344 15.6055C251.752 16.1868 252.074 16.8548 252.309 17.6094C252.544 18.3639 252.661 19.2174 252.661 20.1699Z" fill="white"/>
</svg>
