<svg width="257" height="28" viewBox="0 0 257 28" fill="none" xmlns="http://www.w3.org/2000/svg">
<path d="M27.0234 5.2168H16.3916V27H11.5674V5.2168H0.916992V0.392578H27.0234V5.2168ZM35.4473 11.2656H52.3877V0.392578H57.2119V27H52.3877V16.127H35.4473V27H30.623V0.392578H35.4473V11.2656ZM84.7471 16.127H69.5137V11.2656H84.7471V16.127ZM86.918 27H69.5137C68.8457 27 68.1159 26.8825 67.3242 26.6475C66.5326 26.4124 65.7965 26.029 65.1162 25.4971C64.4482 24.9528 63.8854 24.2539 63.4277 23.4004C62.9824 22.5345 62.7598 21.4769 62.7598 20.2275V2.82324C62.7598 2.48926 62.8216 2.17383 62.9453 1.87695C63.069 1.58008 63.236 1.32031 63.4463 1.09766C63.6689 0.875 63.9287 0.701823 64.2256 0.578125C64.5225 0.454427 64.8441 0.392578 65.1904 0.392578H86.918V5.2168H67.584V20.2275C67.584 20.8584 67.751 21.3408 68.085 21.6748C68.4189 22.0088 68.9076 22.1758 69.5508 22.1758H86.918V27ZM129.52 19.1699C129.52 20.1224 129.396 20.9821 129.148 21.749C128.913 22.5036 128.598 23.1715 128.202 23.7529C127.806 24.3343 127.342 24.8291 126.811 25.2373C126.279 25.6455 125.728 25.9795 125.159 26.2393C124.59 26.499 124.009 26.6908 123.415 26.8145C122.834 26.9382 122.283 27 121.764 27H103.153V22.1758H121.764C122.691 22.1758 123.409 21.9036 123.916 21.3594C124.436 20.8151 124.695 20.0853 124.695 19.1699C124.695 18.7246 124.627 18.3164 124.491 17.9453C124.355 17.5742 124.157 17.2526 123.897 16.9805C123.65 16.7083 123.341 16.498 122.97 16.3496C122.611 16.2012 122.209 16.127 121.764 16.127H110.668C109.889 16.127 109.048 15.9909 108.145 15.7188C107.242 15.4342 106.4 14.9827 105.621 14.3643C104.854 13.7458 104.211 12.9355 103.691 11.9336C103.184 10.9316 102.931 9.70703 102.931 8.25977C102.931 6.8125 103.184 5.59408 103.691 4.60449C104.211 3.60254 104.854 2.79232 105.621 2.17383C106.4 1.54297 107.242 1.09147 108.145 0.819336C109.048 0.534831 109.889 0.392578 110.668 0.392578H127.089V5.2168H110.668C109.753 5.2168 109.035 5.49512 108.516 6.05176C108.008 6.6084 107.755 7.3444 107.755 8.25977C107.755 9.1875 108.008 9.9235 108.516 10.4678C109.035 10.9997 109.753 11.2656 110.668 11.2656H121.764H121.801C122.32 11.278 122.871 11.3522 123.452 11.4883C124.034 11.612 124.609 11.8099 125.178 12.082C125.759 12.3542 126.31 12.7005 126.829 13.1211C127.349 13.5293 127.806 14.0241 128.202 14.6055C128.61 15.1868 128.932 15.8548 129.167 16.6094C129.402 17.3639 129.52 18.2174 129.52 19.1699ZM157.277 5.2168H146.646V27H141.821V5.2168H131.171V0.392578H157.277V5.2168ZM188.394 16.2383C188.394 17.8587 188.115 19.3493 187.559 20.71C187.002 22.0706 186.229 23.2458 185.239 24.2354C184.25 25.2249 183.075 25.998 181.714 26.5547C180.366 27.099 178.894 27.3711 177.298 27.3711H170.767C169.171 27.3711 167.693 27.099 166.332 26.5547C164.971 25.998 163.796 25.2249 162.807 24.2354C161.817 23.2458 161.038 22.0706 160.469 20.71C159.912 19.3493 159.634 17.8587 159.634 16.2383V11.1543C159.634 9.54622 159.912 8.06185 160.469 6.70117C161.038 5.32812 161.817 4.15299 162.807 3.17578C163.796 2.1862 164.971 1.41309 166.332 0.856445C167.693 0.299805 169.171 0.0214844 170.767 0.0214844H177.298C178.894 0.0214844 180.366 0.299805 181.714 0.856445C183.075 1.41309 184.25 2.1862 185.239 3.17578C186.229 4.15299 187.002 5.32812 187.559 6.70117C188.115 8.06185 188.394 9.54622 188.394 11.1543V16.2383ZM183.569 11.1543C183.569 10.2018 183.415 9.34212 183.105 8.5752C182.809 7.7959 182.382 7.13411 181.825 6.58984C181.281 6.0332 180.619 5.60645 179.84 5.30957C179.073 5.00033 178.226 4.8457 177.298 4.8457H170.767C169.826 4.8457 168.967 5.00033 168.188 5.30957C167.421 5.60645 166.759 6.0332 166.202 6.58984C165.646 7.13411 165.213 7.7959 164.903 8.5752C164.606 9.34212 164.458 10.2018 164.458 11.1543V16.2383C164.458 17.1908 164.606 18.0566 164.903 18.8359C165.213 19.6029 165.646 20.2646 166.202 20.8213C166.759 21.3656 167.421 21.7923 168.188 22.1016C168.967 22.3984 169.826 22.5469 170.767 22.5469H177.261C178.201 22.5469 179.054 22.3984 179.821 22.1016C180.601 21.7923 181.269 21.3656 181.825 20.8213C182.382 20.2646 182.809 19.6029 183.105 18.8359C183.415 18.0566 183.569 17.1908 183.569 16.2383V11.1543ZM219.751 9.33594C219.751 10.4368 219.615 11.4202 219.343 12.2861C219.071 13.152 218.7 13.9189 218.229 14.5869C217.772 15.2425 217.24 15.8053 216.634 16.2754C216.028 16.7454 215.391 17.1351 214.723 17.4443C214.067 17.7412 213.399 17.9577 212.719 18.0938C212.051 18.2298 211.42 18.2979 210.826 18.2979L220.901 27H213.442L203.386 18.2979H199.916V13.4736H210.826C211.432 13.4242 211.983 13.3005 212.478 13.1025C212.985 12.8923 213.418 12.6139 213.776 12.2676C214.147 11.9212 214.432 11.5068 214.63 11.0244C214.828 10.5296 214.927 9.9668 214.927 9.33594V6.29297C214.927 6.02083 214.89 5.81673 214.815 5.68066C214.754 5.53223 214.667 5.42708 214.556 5.36523C214.457 5.29102 214.345 5.24772 214.222 5.23535C214.11 5.22298 214.005 5.2168 213.906 5.2168H197.986V27H193.162V2.82324C193.162 2.48926 193.224 2.17383 193.348 1.87695C193.471 1.58008 193.638 1.32031 193.849 1.09766C194.071 0.875 194.331 0.701823 194.628 0.578125C194.925 0.454427 195.246 0.392578 195.593 0.392578H213.906C214.982 0.392578 215.892 0.590495 216.634 0.986328C217.376 1.36979 217.976 1.8584 218.434 2.45215C218.904 3.03353 219.238 3.66439 219.436 4.34473C219.646 5.02507 219.751 5.66211 219.751 6.25586V9.33594ZM249.939 9.29883C249.939 10.3997 249.797 11.3831 249.513 12.249C249.241 13.1149 248.876 13.8818 248.418 14.5498C247.96 15.2054 247.422 15.7682 246.804 16.2383C246.198 16.7083 245.567 17.098 244.911 17.4072C244.256 17.7041 243.588 17.9206 242.907 18.0566C242.239 18.1927 241.608 18.2607 241.015 18.2607H239.066V27H234.205V18.2607H232.275C231.682 18.2607 231.045 18.1927 230.364 18.0566C229.696 17.9206 229.028 17.7041 228.36 17.4072C227.705 17.098 227.074 16.7083 226.468 16.2383C225.862 15.7682 225.324 15.2054 224.854 14.5498C224.396 13.8818 224.025 13.1149 223.74 12.249C223.468 11.3708 223.332 10.3874 223.332 9.29883V0.392578H228.156V9.29883C228.156 9.92969 228.255 10.4987 228.453 11.0059C228.651 11.5007 228.929 11.9274 229.288 12.2861C229.647 12.6449 230.08 12.9232 230.587 13.1211C231.106 13.3066 231.682 13.3994 232.312 13.3994H241.015C241.472 13.3252 241.942 13.2324 242.425 13.1211C242.907 12.9974 243.346 12.7933 243.742 12.5088C244.138 12.2243 244.466 11.8285 244.726 11.3213C244.985 10.8141 245.115 10.14 245.115 9.29883V0.392578H249.939V9.29883ZM256.322 24.5693C256.322 24.9033 256.254 25.2188 256.118 25.5156C255.994 25.8001 255.821 26.0537 255.599 26.2764C255.388 26.4867 255.135 26.6536 254.838 26.7773C254.553 26.901 254.25 26.9629 253.929 26.9629C253.595 26.9629 253.279 26.901 252.982 26.7773C252.698 26.6536 252.444 26.4867 252.222 26.2764C252.011 26.0537 251.844 25.8001 251.721 25.5156C251.597 25.2188 251.535 24.9033 251.535 24.5693C251.535 24.2477 251.597 23.9447 251.721 23.6602C251.844 23.3633 252.011 23.1097 252.222 22.8994C252.444 22.6768 252.698 22.5036 252.982 22.3799C253.279 22.2438 253.595 22.1758 253.929 22.1758C254.25 22.1758 254.553 22.2438 254.838 22.3799C255.135 22.5036 255.388 22.6768 255.599 22.8994C255.821 23.1097 255.994 23.3633 256.118 23.6602C256.254 23.9447 256.322 24.2477 256.322 24.5693Z" fill="#A8A8A8"/>
</svg>
