<svg width="227" height="29" viewBox="0 0 227 29" fill="none" xmlns="http://www.w3.org/2000/svg">
<path d="M35.7754 1.39258L31.3223 26.3301C31.2233 26.8249 31.0007 27.2516 30.6543 27.6104C30.3079 27.9691 29.8874 28.1979 29.3926 28.2969C28.8854 28.3835 28.403 28.3278 27.9453 28.1299C27.5 27.932 27.1475 27.6227 26.8877 27.2021L18.0557 12.6924L9.20508 27.2021C8.99479 27.5609 8.7041 27.8392 8.33301 28.0371C7.97428 28.235 7.58464 28.334 7.16406 28.334C6.58268 28.334 6.06934 28.1484 5.62402 27.7773C5.17871 27.4062 4.90658 26.9238 4.80762 26.3301L0.317383 1.39258H5.21582L8.40723 18.9639L16.0146 6.8291C16.2249 6.47038 16.5094 6.19206 16.8682 5.99414C17.2393 5.79622 17.6351 5.69727 18.0557 5.69727C18.4762 5.69727 18.8659 5.79622 19.2246 5.99414C19.5833 6.19206 19.8802 6.47038 20.1152 6.8291L27.6855 18.9639L30.877 1.39258H35.7754ZM65.7227 28H60.8984V21.4688H43.9395V28H39.1152V14.6963C39.1152 12.7542 39.4492 10.9668 40.1172 9.33398C40.7852 7.70117 41.7129 6.2972 42.9004 5.12207C44.0879 3.94694 45.4919 3.03158 47.1123 2.37598C48.7327 1.72038 50.5016 1.39258 52.4189 1.39258H63.292C63.626 1.39258 63.9414 1.45443 64.2383 1.57812C64.5352 1.70182 64.7949 1.875 65.0176 2.09766C65.2402 2.32031 65.4134 2.58008 65.5371 2.87695C65.6608 3.17383 65.7227 3.48926 65.7227 3.82324V28ZM43.9395 16.6445H60.8984V6.2168H52.4189C52.2705 6.2168 51.9551 6.24154 51.4727 6.29102C51.0026 6.32812 50.4521 6.43327 49.8213 6.60645C49.2028 6.77962 48.5472 7.04557 47.8545 7.4043C47.1618 7.76302 46.5247 8.25781 45.9434 8.88867C45.362 9.51953 44.8796 10.3112 44.4961 11.2637C44.125 12.2038 43.9395 13.348 43.9395 14.6963V16.6445ZM97.9707 1.39258L85.3721 27.0537C85.1742 27.4495 84.8773 27.765 84.4814 28C84.098 28.2474 83.6712 28.3711 83.2012 28.3711C82.7435 28.3711 82.3167 28.2474 81.9209 28C81.5374 27.765 81.2406 27.4495 81.0303 27.0537L68.4502 1.39258H73.8496L83.2012 20.5596L92.5898 1.39258H97.9707ZM122.574 17.127H107.341V12.2656H122.574V17.127ZM124.745 28H107.341C106.673 28 105.943 27.8825 105.151 27.6475C104.36 27.4124 103.624 27.029 102.943 26.4971C102.275 25.9528 101.713 25.2539 101.255 24.4004C100.81 23.5345 100.587 22.4769 100.587 21.2275V3.82324C100.587 3.48926 100.649 3.17383 100.772 2.87695C100.896 2.58008 101.063 2.32031 101.273 2.09766C101.496 1.875 101.756 1.70182 102.053 1.57812C102.35 1.45443 102.671 1.39258 103.018 1.39258H124.745V6.2168H105.411V21.2275C105.411 21.8584 105.578 22.3408 105.912 22.6748C106.246 23.0088 106.735 23.1758 107.378 23.1758H124.745V28ZM168.367 25.9404C168.367 26.2868 168.299 26.6084 168.163 26.9053C168.039 27.2021 167.866 27.4619 167.644 27.6846C167.433 27.8949 167.18 28.0618 166.883 28.1855C166.586 28.3092 166.271 28.3711 165.937 28.3711C165.64 28.3711 165.337 28.3154 165.027 28.2041C164.73 28.0928 164.465 27.9134 164.229 27.666L146.603 9.25977V28H141.778V3.45215C141.778 2.95736 141.914 2.51204 142.187 2.11621C142.471 1.70801 142.83 1.40495 143.263 1.20703C143.72 1.02148 144.19 0.97819 144.673 1.07715C145.155 1.16374 145.57 1.38639 145.916 1.74512L163.543 20.1328V1.39258H168.367V25.9404ZM195.995 17.127H180.743V12.2656H195.995V17.127ZM198.147 6.2168H178.813V28H173.989V3.82324C173.989 3.48926 174.051 3.17383 174.175 2.87695C174.299 2.58008 174.465 2.32031 174.676 2.09766C174.898 1.875 175.158 1.70182 175.455 1.57812C175.752 1.45443 176.074 1.39258 176.42 1.39258H198.147V6.2168ZM226.091 6.2168H215.459V28H210.635V6.2168H199.984V1.39258H226.091V6.2168Z" fill="white"/>
</svg>
